<?xml version="1.0" standalone="no"?>
<!DOCTYPE svg PUBLIC "-//W3C//DTD SVG 20010904//EN"
 "http://www.w3.org/TR/2001/REC-SVG-20010904/DTD/svg10.dtd">
<svg version="1.0" xmlns="http://www.w3.org/2000/svg"
 width="761.000000pt" height="761.000000pt" viewBox="0 0 761.000000 761.000000"
 preserveAspectRatio="xMidYMid meet">
<metadata>
Created by potrace 1.14, written by Peter Selinger 2001-2017
</metadata>
<g transform="translate(0.000000,761.000000) scale(0.100000,-0.100000)"
fill="#000000" stroke="none">
<path d="M199 7446 c-64 -23 -110 -58 -144 -110 -55 -87 -64 -188 -22 -273 21
-44 211 -378 313 -550 24 -41 44 -76 44 -78 0 -2 27 -48 59 -103 32 -55 72
-124 89 -154 16 -29 70 -123 119 -208 201 -347 437 -756 455 -789 11 -20 37
-65 58 -101 21 -36 47 -81 58 -100 10 -19 118 -206 239 -415 393 -682 436
-757 436 -769 0 -6 -24 -51 -53 -101 -54 -92 -256 -441 -292 -505 -11 -19
-115 -199 -231 -400 -115 -201 -221 -385 -235 -410 -14 -25 -28 -49 -32 -55
-4 -5 -17 -26 -27 -45 -11 -19 -64 -111 -118 -205 -280 -486 -521 -905 -543
-945 -14 -25 -28 -49 -32 -55 -14 -19 -279 -484 -305 -535 -62 -122 -18 -281
97 -357 l42 -28 2616 -3 c2892 -2 2654 -8 2723 62 18 18 48 60 67 92 62 110
47 84 491 849 57 99 109 187 114 197 6 9 17 29 26 45 8 15 49 87 91 158 169
291 192 331 208 360 9 17 68 118 130 225 62 107 147 254 188 325 41 72 97 168
125 215 27 47 59 101 70 120 10 19 68 118 127 220 58 102 184 319 279 483
l173 298 -70 122 c-38 67 -101 176 -140 242 -38 66 -93 161 -122 210 -29 50
-62 108 -75 130 -12 22 -58 101 -102 175 -43 75 -82 142 -86 150 -4 8 -15 29
-26 45 -10 17 -85 145 -166 285 -225 389 -243 419 -435 751 -99 170 -229 394
-289 497 -59 103 -197 340 -306 527 -109 187 -207 357 -218 377 -30 55 -87
106 -143 127 -47 18 -139 19 -2619 19 -2047 0 -2577 -2 -2606 -12z m4838
-1371 c96 -165 188 -323 204 -352 16 -29 99 -172 184 -319 85 -147 155 -268
155 -270 0 -2 25 -44 55 -94 30 -50 55 -93 55 -96 0 -2 11 -21 24 -42 21 -33
209 -355 266 -457 13 -22 33 -58 45 -80 13 -22 50 -86 84 -143 34 -57 61 -105
61 -106 0 -2 40 -72 89 -156 100 -169 99 -161 41 -247 -17 -24 -30 -46 -30
-48 0 -2 -57 -102 -126 -222 -70 -120 -135 -234 -146 -253 -11 -19 -27 -48
-37 -65 -23 -38 -392 -678 -418 -725 -11 -19 -52 -89 -90 -155 -39 -66 -114
-196 -168 -290 -54 -93 -106 -183 -115 -200 -161 -279 -247 -428 -268 -465
-13 -25 -29 -51 -35 -57 -7 -10 -339 -13 -1598 -13 -874 0 -1589 3 -1589 6 0
5 561 982 695 1209 29 50 76 132 105 183 46 82 54 91 65 75 12 -18 409 -708
459 -797 55 -98 94 -153 134 -184 82 -66 70 -64 682 -66 305 -1 563 2 572 6
10 5 55 74 100 154 46 80 90 158 99 172 9 15 27 47 41 72 14 25 51 90 83 145
113 194 155 268 155 271 0 1 22 39 50 84 28 45 50 83 50 84 0 2 23 43 51 92
28 49 121 211 207 359 85 149 189 329 230 400 41 72 97 168 124 215 27 47 50
92 51 100 0 8 -82 157 -183 330 -100 173 -192 331 -203 350 -10 19 -50 87 -87
150 -37 63 -77 132 -89 153 -36 64 -54 94 -230 395 -94 161 -171 298 -171 303
0 5 -4 9 -10 9 -5 0 -10 4 -10 9 0 4 -22 46 -49 92 -28 46 -59 102 -71 124
-38 72 -94 148 -131 178 -71 56 -65 56 -683 54 l-569 -2 -17 -30 c-9 -16 -61
-106 -115 -200 -54 -93 -183 -316 -285 -493 -103 -178 -191 -324 -196 -324 -5
0 -16 12 -25 28 -9 16 -75 130 -146 254 -72 124 -139 241 -150 260 -11 19 -53
91 -93 160 -39 69 -133 231 -207 360 -75 129 -139 240 -143 245 -4 6 -22 37
-40 70 -18 33 -39 70 -47 81 l-14 22 1597 -2 1597 -1 174 -300z m-1186 -1342
c41 -71 79 -137 85 -148 6 -11 53 -92 104 -180 51 -88 103 -178 115 -200 13
-22 70 -122 128 -221 l105 -181 -57 -99 c-32 -55 -100 -173 -153 -264 -190
-328 -212 -368 -306 -530 -52 -91 -96 -166 -97 -168 -1 -2 -119 199 -261 445
-143 246 -263 455 -269 464 -5 10 -18 31 -27 49 -9 17 -26 45 -37 63 l-20 32
147 256 c217 376 467 809 468 809 1 0 34 -57 75 -127z"/>
</g>
</svg>
