<svg xmlns="http://www.w3.org/2000/svg" xmlns:xlink="http://www.w3.org/1999/xlink" width="500" zoomAndPan="magnify" viewBox="0 0 375 374.999991" height="500" preserveAspectRatio="xMidYMid meet" version="1.0">
  <defs>
    <clipPath id="id1">
      <path d="M 0 0 L 375 0 L 375 374.25 L 0 374.25 Z M 0 0 " clip-rule="nonzero" />
    </clipPath>
  </defs>
  <path fill="#fbb040" d="M 170.035156 75.246094 C 161.246094 80.019531 133.125 97.554688 127.996094 128.511719 C 131.410156 125.742188 135.019531 123.265625 138.828125 121.078125 C 144.316406 117.949219 150.0625 115.417969 156.074219 113.480469 C 162.082031 111.542969 168.226562 110.238281 174.507812 109.566406 Z M 170.035156 75.246094 " fill-opacity="1" fill-rule="nonzero" />
  <path fill="#fbb040" d="M 106.71875 170.898438 C 102.988281 190.085938 108.125 209.820312 121.179688 226.46875 C 124.863281 231.128906 128.980469 235.371094 133.527344 239.1875 C 138.078125 243.007812 142.964844 246.328125 148.191406 249.152344 L 148.375 249.257812 C 157.136719 253.996094 166.40625 257.308594 176.1875 259.199219 C 184.011719 260.757812 191.902344 261.320312 199.867188 260.878906 C 207.832031 260.441406 215.613281 259.015625 223.21875 256.605469 C 223.539062 256.398438 223.894531 256.28125 224.28125 256.261719 C 249.464844 247.765625 268.777344 228.519531 273.664062 203.414062 C 277.394531 184.226562 272.257812 164.488281 259.210938 147.839844 C 246.164062 131.195312 226.542969 119.480469 204.175781 115.128906 C 197.949219 113.914062 191.660156 113.304688 185.3125 113.300781 C 182.609375 113.300781 179.917969 113.421875 177.25 113.652344 L 176.929688 113.652344 C 170.59375 114.183594 164.390625 115.386719 158.320312 117.269531 C 152.246094 119.152344 146.449219 121.664062 140.921875 124.808594 C 122.601562 135.355469 110.449219 151.71875 106.71875 170.898438 Z M 106.71875 170.898438 " fill-opacity="1" fill-rule="nonzero" />
  <path fill="#fbb040" d="M 262.578125 145.15625 C 267.472656 151.355469 271.363281 158.128906 274.25 165.476562 C 285.289062 135.132812 268.234375 105.605469 262.625 97.117188 L 242.050781 126.125 C 249.890625 131.390625 256.734375 137.738281 262.578125 145.15625 Z M 262.578125 145.15625 " fill-opacity="1" fill-rule="nonzero" />
  <path fill="#fbb040" d="M 143.734375 251.589844 C 134.914062 246.484375 127.160156 240.085938 120.46875 232.394531 C 117.710938 240.257812 101.054688 289.863281 113.117188 307.277344 C 115.78125 311.101562 119.664062 313.003906 124.984375 313.035156 C 126.652344 313.011719 128.238281 312.636719 129.738281 311.910156 C 131.238281 311.179688 132.515625 310.167969 133.570312 308.875 C 136.96875 304.875 140.195312 296.097656 136.296875 276.984375 C 135.855469 274.726562 135.6875 272.445312 135.792969 270.144531 C 135.902344 267.847656 136.277344 265.589844 136.925781 263.382812 C 137.570312 261.171875 138.46875 259.070312 139.621094 257.078125 C 140.773438 255.082031 142.144531 253.253906 143.734375 251.589844 Z M 143.734375 251.589844 " fill-opacity="1" fill-rule="nonzero" />
  <path fill="#fbb040" d="M 234.804688 288.097656 C 236.882812 289.480469 239.390625 289.503906 242.449219 288.175781 C 257.421875 281.667969 250.632812 255.757812 248.46875 248.730469 C 241.714844 253.535156 234.417969 257.292969 226.582031 260.003906 C 226.71875 267.648438 228.324219 283.792969 234.804688 288.097656 Z M 234.804688 288.097656 " fill-opacity="1" fill-rule="nonzero" />
  <path fill="#d1d3d4" d="M 357.945312 157.972656 L 315.210938 157.972656 C 314.972656 157.972656 314.738281 157.9375 314.511719 157.859375 C 314.285156 157.78125 314.078125 157.667969 313.886719 157.519531 C 313.699219 157.371094 313.539062 157.199219 313.40625 156.996094 C 313.277344 156.796875 313.183594 156.578125 313.125 156.34375 C 310.070312 143.898438 305.253906 132.171875 298.679688 121.167969 C 298.558594 120.964844 298.472656 120.742188 298.425781 120.511719 C 298.375 120.277344 298.367188 120.042969 298.394531 119.804688 C 298.425781 119.566406 298.492188 119.34375 298.597656 119.128906 C 298.703125 118.914062 298.839844 118.722656 299.007812 118.554688 L 329.398438 88.148438 C 329.953125 87.589844 330.449219 86.984375 330.882812 86.332031 C 331.320312 85.675781 331.6875 84.988281 331.988281 84.257812 C 332.289062 83.53125 332.515625 82.785156 332.667969 82.011719 C 332.824219 81.242188 332.898438 80.460938 332.898438 79.675781 C 332.898438 78.890625 332.824219 78.109375 332.667969 77.339844 C 332.515625 76.566406 332.289062 75.816406 331.988281 75.089844 C 331.6875 74.363281 331.320312 73.671875 330.882812 73.019531 C 330.449219 72.363281 329.953125 71.757812 329.398438 71.203125 L 304.808594 46.601562 C 304.253906 46.046875 303.648438 45.550781 302.992188 45.113281 C 302.339844 44.675781 301.648438 44.308594 300.921875 44.007812 C 300.195312 43.707031 299.445312 43.480469 298.675781 43.328125 C 297.90625 43.175781 297.125 43.097656 296.339844 43.097656 C 295.554688 43.097656 294.777344 43.175781 294.003906 43.328125 C 293.234375 43.480469 292.484375 43.707031 291.757812 44.007812 C 291.03125 44.308594 290.339844 44.675781 289.6875 45.113281 C 289.035156 45.550781 288.429688 46.046875 287.871094 46.601562 L 257.816406 76.691406 C 257.648438 76.863281 257.453125 77 257.238281 77.105469 C 257.019531 77.207031 256.792969 77.273438 256.550781 77.300781 C 256.3125 77.328125 256.078125 77.316406 255.839844 77.265625 C 255.605469 77.214844 255.386719 77.125 255.179688 77 C 243.75 69.972656 231.519531 64.855469 218.492188 61.652344 C 218.261719 61.59375 218.042969 61.5 217.84375 61.371094 C 217.640625 61.242188 217.464844 61.082031 217.320312 60.894531 C 217.171875 60.703125 217.058594 60.496094 216.980469 60.269531 C 216.902344 60.042969 216.863281 59.8125 216.867188 59.570312 L 216.867188 16.824219 C 216.863281 16.035156 216.785156 15.257812 216.632812 14.484375 C 216.480469 13.714844 216.25 12.964844 215.949219 12.234375 C 215.648438 11.507812 215.277344 10.816406 214.839844 10.164062 C 214.402344 9.507812 213.90625 8.902344 213.351562 8.347656 C 212.796875 7.789062 212.191406 7.292969 211.535156 6.855469 C 210.882812 6.417969 210.191406 6.046875 209.464844 5.746094 C 208.738281 5.441406 207.988281 5.214844 207.21875 5.058594 C 206.445312 4.90625 205.667969 4.828125 204.878906 4.824219 L 170.121094 4.824219 C 169.332031 4.828125 168.554688 4.902344 167.78125 5.058594 C 167.007812 5.210938 166.261719 5.441406 165.535156 5.742188 C 164.804688 6.042969 164.117188 6.414062 163.460938 6.851562 C 162.808594 7.289062 162.203125 7.789062 161.648438 8.34375 C 161.089844 8.902344 160.59375 9.507812 160.15625 10.160156 C 159.71875 10.816406 159.351562 11.507812 159.046875 12.234375 C 158.746094 12.960938 158.519531 13.710938 158.367188 14.484375 C 158.210938 15.257812 158.136719 16.035156 158.132812 16.824219 L 158.132812 59.570312 C 158.136719 59.8125 158.097656 60.042969 158.019531 60.269531 C 157.941406 60.496094 157.828125 60.703125 157.679688 60.894531 C 157.535156 61.082031 157.359375 61.242188 157.15625 61.371094 C 156.957031 61.5 156.738281 61.59375 156.507812 61.652344 C 144.148438 64.691406 132.496094 69.464844 121.554688 75.964844 C 121.347656 76.089844 121.128906 76.175781 120.894531 76.222656 C 120.664062 76.273438 120.425781 76.28125 120.191406 76.253906 C 119.953125 76.222656 119.726562 76.15625 119.511719 76.050781 C 119.300781 75.945312 119.109375 75.808594 118.941406 75.636719 L 88.519531 45.210938 C 87.964844 44.652344 87.359375 44.152344 86.707031 43.714844 C 86.050781 43.277344 85.363281 42.90625 84.636719 42.605469 C 83.910156 42.304688 83.160156 42.074219 82.386719 41.921875 C 81.617188 41.769531 80.835938 41.691406 80.050781 41.691406 C 79.265625 41.691406 78.484375 41.769531 77.714844 41.921875 C 76.941406 42.074219 76.191406 42.304688 75.464844 42.605469 C 74.738281 42.90625 74.050781 43.277344 73.394531 43.714844 C 72.742188 44.152344 72.136719 44.652344 71.582031 45.210938 L 47 69.804688 C 46.445312 70.359375 45.949219 70.964844 45.515625 71.621094 C 45.078125 72.273438 44.710938 72.964844 44.410156 73.691406 C 44.109375 74.417969 43.882812 75.167969 43.730469 75.9375 C 43.578125 76.710938 43.5 77.488281 43.5 78.277344 C 43.5 79.0625 43.578125 79.839844 43.730469 80.613281 C 43.882812 81.382812 44.109375 82.132812 44.410156 82.859375 C 44.710938 83.585938 45.078125 84.277344 45.515625 84.933594 C 45.949219 85.585938 46.445312 86.191406 47 86.75 L 77.03125 116.792969 C 77.203125 116.964844 77.339844 117.160156 77.445312 117.378906 C 77.550781 117.59375 77.617188 117.824219 77.644531 118.0625 C 77.671875 118.304688 77.660156 118.542969 77.609375 118.777344 C 77.554688 119.015625 77.464844 119.234375 77.335938 119.441406 C 70.246094 130.929688 65.085938 143.230469 61.859375 156.34375 C 61.804688 156.578125 61.710938 156.796875 61.578125 156.996094 C 61.449219 157.199219 61.292969 157.371094 61.101562 157.519531 C 60.914062 157.667969 60.707031 157.78125 60.480469 157.859375 C 60.253906 157.9375 60.019531 157.976562 59.78125 157.972656 L 17.054688 157.972656 C 16.269531 157.976562 15.488281 158.050781 14.714844 158.207031 C 13.945312 158.359375 13.195312 158.585938 12.46875 158.890625 C 11.742188 159.191406 11.050781 159.558594 10.394531 159.996094 C 9.742188 160.433594 9.136719 160.929688 8.578125 161.488281 C 8.023438 162.042969 7.527344 162.648438 7.089844 163.304688 C 6.652344 163.957031 6.28125 164.648438 5.980469 165.375 C 5.675781 166.105469 5.449219 166.855469 5.296875 167.625 C 5.140625 168.398438 5.0625 169.175781 5.0625 169.964844 L 5.0625 204.742188 C 5.0625 205.53125 5.140625 206.3125 5.296875 207.082031 C 5.453125 207.855469 5.679688 208.605469 5.980469 209.332031 C 6.285156 210.058594 6.652344 210.75 7.089844 211.402344 C 7.527344 212.058594 8.027344 212.664062 8.582031 213.21875 C 9.136719 213.773438 9.742188 214.273438 10.398438 214.710938 C 11.050781 215.148438 11.742188 215.515625 12.46875 215.816406 C 13.195312 216.121094 13.945312 216.347656 14.71875 216.5 C 15.488281 216.65625 16.269531 216.734375 17.054688 216.734375 L 59.78125 216.734375 C 60.019531 216.734375 60.253906 216.773438 60.480469 216.851562 C 60.707031 216.929688 60.914062 217.039062 61.101562 217.1875 C 61.292969 217.335938 61.449219 217.511719 61.578125 217.710938 C 61.710938 217.914062 61.804688 218.128906 61.859375 218.363281 C 65.128906 231.660156 70.386719 244.113281 77.636719 255.726562 C 77.765625 255.933594 77.855469 256.152344 77.910156 256.390625 C 77.960938 256.628906 77.972656 256.867188 77.945312 257.109375 C 77.917969 257.347656 77.851562 257.578125 77.746094 257.796875 C 77.640625 258.015625 77.5 258.210938 77.328125 258.382812 L 47.382812 288.34375 C 46.828125 288.898438 46.332031 289.503906 45.894531 290.160156 C 45.460938 290.816406 45.089844 291.503906 44.792969 292.234375 C 44.492188 292.960938 44.265625 293.710938 44.109375 294.480469 C 43.957031 295.253906 43.882812 296.03125 43.882812 296.820312 C 43.882812 297.605469 43.957031 298.386719 44.109375 299.15625 C 44.265625 299.929688 44.492188 300.679688 44.792969 301.40625 C 45.089844 302.132812 45.460938 302.824219 45.894531 303.476562 C 46.332031 304.132812 46.828125 304.738281 47.382812 305.296875 L 71.964844 329.890625 C 72.519531 330.445312 73.125 330.941406 73.78125 331.378906 C 74.433594 331.816406 75.125 332.1875 75.851562 332.488281 C 76.578125 332.789062 77.328125 333.015625 78.097656 333.167969 C 78.871094 333.324219 79.648438 333.398438 80.4375 333.398438 C 81.222656 333.398438 82.003906 333.324219 82.773438 333.167969 C 83.546875 333.015625 84.292969 332.789062 85.023438 332.488281 C 85.75 332.1875 86.4375 331.816406 87.09375 331.378906 C 87.746094 330.941406 88.351562 330.445312 88.910156 329.890625 L 109.085938 309.707031 C 109.191406 309.609375 109.300781 309.519531 109.417969 309.441406 C 95.453125 288.5625 115.9375 232.203125 116.824219 229.835938 C 116.972656 229.421875 117.230469 229.09375 117.585938 228.839844 C 103.921875 211.25 98.570312 190.40625 102.515625 170.09375 C 103.214844 166.546875 104.179688 163.078125 105.417969 159.679688 C 106.65625 156.285156 108.148438 153.003906 109.898438 149.839844 C 111.644531 146.675781 113.625 143.667969 115.839844 140.8125 C 118.054688 137.953125 120.476562 135.289062 123.105469 132.808594 C 123.101562 132.757812 123.101562 132.707031 123.105469 132.65625 C 126.867188 90.480469 170.449219 70.207031 170.890625 70.007812 C 171.042969 69.941406 171.203125 69.890625 171.367188 69.855469 C 171.53125 69.824219 171.695312 69.8125 171.863281 69.816406 C 172.03125 69.824219 172.195312 69.851562 172.359375 69.894531 C 172.519531 69.941406 172.671875 70.003906 172.820312 70.085938 C 172.964844 70.167969 173.101562 70.265625 173.226562 70.378906 C 173.347656 70.492188 173.457031 70.617188 173.550781 70.753906 C 173.644531 70.894531 173.722656 71.042969 173.78125 71.199219 C 173.839844 71.355469 173.882812 71.519531 173.902344 71.683594 L 178.777344 109.207031 C 187.59375 108.632812 196.339844 109.191406 205.011719 110.882812 C 216.929688 113.171875 228.070312 117.476562 238.433594 123.792969 L 260.875 92.140625 C 261.296875 91.554688 261.867188 91.253906 262.585938 91.238281 C 262.929688 91.226562 263.25 91.296875 263.558594 91.445312 C 263.863281 91.59375 264.121094 91.804688 264.324219 92.078125 C 264.621094 92.460938 293.582031 130.863281 277.078125 169.964844 C 276.886719 170.421875 276.570312 170.765625 276.132812 170.996094 C 277.769531 176.375 278.734375 181.867188 279.03125 187.480469 C 279.324219 193.09375 278.9375 198.660156 277.875 204.179688 C 274.59375 221.039062 265.230469 235.402344 252.078125 245.960938 C 253.605469 250.433594 264.054688 283.433594 244.136719 292.089844 C 242.28125 292.945312 240.332031 293.394531 238.289062 293.433594 C 236.152344 293.445312 234.195312 292.847656 232.425781 291.644531 C 224.019531 286.03125 222.542969 268.597656 222.324219 261.324219 C 213.367188 263.960938 204.21875 265.273438 194.882812 265.261719 C 186.65625 265.25 178.550781 264.265625 170.558594 262.308594 C 162.570312 260.351562 154.925781 257.476562 147.625 253.683594 C 146.144531 255.105469 144.859375 256.683594 143.773438 258.425781 C 142.6875 260.167969 141.835938 262.015625 141.210938 263.972656 C 140.589844 265.929688 140.21875 267.929688 140.097656 269.980469 C 139.976562 272.027344 140.113281 274.0625 140.5 276.078125 C 143.3125 289.839844 142.960938 300.410156 139.46875 307.535156 C 145.019531 309.761719 150.699219 311.589844 156.507812 313.019531 C 156.738281 313.078125 156.957031 313.171875 157.15625 313.304688 C 157.359375 313.433594 157.53125 313.59375 157.679688 313.78125 C 157.828125 313.972656 157.941406 314.179688 158.019531 314.40625 C 158.097656 314.632812 158.136719 314.867188 158.132812 315.105469 L 158.132812 357.441406 C 158.136719 358.226562 158.214844 359.007812 158.367188 359.78125 C 158.523438 360.550781 158.75 361.300781 159.050781 362.027344 C 159.351562 362.753906 159.722656 363.445312 160.160156 364.097656 C 160.597656 364.75 161.09375 365.355469 161.648438 365.914062 C 162.207031 366.46875 162.8125 366.964844 163.464844 367.402344 C 164.117188 367.839844 164.808594 368.210938 165.535156 368.511719 C 166.261719 368.8125 167.011719 369.039062 167.78125 369.191406 C 168.554688 369.347656 169.332031 369.425781 170.121094 369.425781 L 204.878906 369.425781 C 205.667969 369.421875 206.445312 369.347656 207.21875 369.191406 C 207.988281 369.039062 208.738281 368.808594 209.464844 368.507812 C 210.1875 368.207031 210.878906 367.835938 211.53125 367.402344 C 212.1875 366.964844 212.792969 366.46875 213.347656 365.910156 C 213.902344 365.355469 214.402344 364.75 214.839844 364.097656 C 215.277344 363.441406 215.644531 362.753906 215.945312 362.027344 C 216.25 361.300781 216.476562 360.550781 216.632812 359.777344 C 216.785156 359.007812 216.863281 358.226562 216.867188 357.441406 L 216.867188 315.128906 C 216.863281 314.890625 216.902344 314.65625 216.980469 314.429688 C 217.058594 314.203125 217.171875 313.996094 217.320312 313.804688 C 217.46875 313.617188 217.640625 313.457031 217.84375 313.324219 C 218.042969 313.195312 218.261719 313.101562 218.492188 313.042969 C 231.117188 309.9375 242.992188 305.027344 254.117188 298.304688 C 254.324219 298.183594 254.542969 298.09375 254.78125 298.046875 C 255.015625 297.996094 255.25 297.984375 255.488281 298.011719 C 255.726562 298.042969 255.953125 298.109375 256.171875 298.214844 C 256.386719 298.320312 256.578125 298.457031 256.75 298.628906 L 287.039062 328.933594 C 287.59375 329.488281 288.199219 329.984375 288.855469 330.421875 C 289.507812 330.855469 290.199219 331.226562 290.925781 331.527344 C 291.652344 331.828125 292.402344 332.054688 293.171875 332.207031 C 293.941406 332.359375 294.722656 332.4375 295.507812 332.4375 C 296.292969 332.4375 297.070312 332.359375 297.84375 332.207031 C 298.613281 332.054688 299.363281 331.828125 300.089844 331.527344 C 300.816406 331.226562 301.507812 330.855469 302.160156 330.421875 C 302.8125 329.984375 303.417969 329.488281 303.976562 328.933594 L 328.566406 304.355469 C 329.121094 303.796875 329.617188 303.191406 330.054688 302.539062 C 330.492188 301.882812 330.859375 301.191406 331.160156 300.464844 C 331.460938 299.738281 331.6875 298.988281 331.84375 298.21875 C 331.996094 297.445312 332.074219 296.664062 332.074219 295.878906 C 332.074219 295.089844 331.996094 294.3125 331.84375 293.539062 C 331.6875 292.769531 331.460938 292.019531 331.160156 291.292969 C 330.859375 290.5625 330.492188 289.871094 330.054688 289.21875 C 329.617188 288.5625 329.121094 287.957031 328.566406 287.402344 L 298.390625 257.210938 C 298.21875 257.039062 298.078125 256.847656 297.972656 256.632812 C 297.867188 256.414062 297.800781 256.1875 297.773438 255.949219 C 297.742188 255.707031 297.753906 255.46875 297.804688 255.234375 C 297.855469 255 297.941406 254.777344 298.066406 254.574219 C 304.949219 243.28125 309.96875 231.21875 313.125 218.378906 C 313.183594 218.144531 313.277344 217.929688 313.40625 217.726562 C 313.539062 217.527344 313.699219 217.351562 313.886719 217.203125 C 314.078125 217.058594 314.285156 216.945312 314.511719 216.867188 C 314.738281 216.789062 314.972656 216.75 315.210938 216.75 L 357.945312 216.75 C 358.730469 216.75 359.511719 216.671875 360.28125 216.515625 C 361.050781 216.359375 361.800781 216.132812 362.527344 215.832031 C 363.253906 215.527344 363.941406 215.160156 364.597656 214.722656 C 365.25 214.285156 365.855469 213.789062 366.410156 213.230469 C 366.964844 212.675781 367.460938 212.070312 367.898438 211.414062 C 368.335938 210.761719 368.707031 210.070312 369.007812 209.34375 C 369.308594 208.617188 369.535156 207.867188 369.691406 207.097656 C 369.84375 206.324219 369.921875 205.546875 369.921875 204.757812 L 369.921875 169.964844 C 369.921875 169.179688 369.84375 168.398438 369.691406 167.628906 C 369.539062 166.855469 369.308594 166.105469 369.007812 165.378906 C 368.707031 164.652344 368.339844 163.960938 367.902344 163.308594 C 367.464844 162.652344 366.96875 162.046875 366.414062 161.492188 C 365.855469 160.933594 365.25 160.4375 364.597656 160 C 363.945312 159.5625 363.253906 159.191406 362.527344 158.890625 C 361.800781 158.589844 361.054688 158.363281 360.28125 158.207031 C 359.511719 158.054688 358.730469 157.976562 357.945312 157.972656 Z M 357.945312 157.972656 " fill-opacity="1" fill-rule="nonzero" />
  <path fill="#f1f2f2" d="M 371.214844 165.09375 L 368.921875 165.09375 C 368.449219 164.03125 367.835938 163.058594 367.082031 162.175781 C 366.328125 161.292969 365.464844 160.535156 364.488281 159.902344 C 363.515625 159.273438 362.472656 158.792969 361.359375 158.464844 C 360.242188 158.136719 359.105469 157.972656 357.945312 157.972656 L 315.210938 157.972656 C 314.972656 157.972656 314.738281 157.933594 314.507812 157.855469 C 314.28125 157.777344 314.074219 157.664062 313.882812 157.511719 C 313.695312 157.363281 313.535156 157.1875 313.40625 156.984375 C 313.273438 156.78125 313.179688 156.5625 313.125 156.328125 C 310.066406 143.882812 305.253906 132.15625 298.6875 121.152344 C 298.433594 120.730469 298.339844 120.273438 298.398438 119.78125 C 298.457031 119.292969 298.660156 118.875 299.007812 118.523438 L 329.113281 88.402344 C 330.234375 87.3125 331.121094 86.058594 331.773438 84.640625 C 332.425781 83.222656 332.796875 81.730469 332.890625 80.171875 C 332.96875 78.492188 332.703125 76.871094 332.097656 75.300781 C 331.488281 73.734375 330.589844 72.359375 329.398438 71.171875 L 304.808594 46.601562 C 304.253906 46.046875 303.648438 45.550781 302.992188 45.113281 C 302.339844 44.675781 301.648438 44.308594 300.921875 44.007812 C 300.195312 43.707031 299.445312 43.480469 298.675781 43.328125 C 297.90625 43.175781 297.125 43.097656 296.339844 43.097656 C 295.554688 43.097656 294.777344 43.175781 294.003906 43.328125 C 293.234375 43.480469 292.484375 43.707031 291.757812 44.007812 C 291.03125 44.308594 290.339844 44.675781 289.6875 45.113281 C 289.035156 45.550781 288.429688 46.046875 287.871094 46.601562 L 257.816406 76.691406 C 257.648438 76.863281 257.453125 77 257.238281 77.105469 C 257.019531 77.207031 256.792969 77.273438 256.550781 77.300781 C 256.3125 77.328125 256.078125 77.316406 255.839844 77.265625 C 255.605469 77.214844 255.386719 77.125 255.179688 77 C 243.761719 69.976562 231.546875 64.863281 218.53125 61.660156 C 218.296875 61.601562 218.078125 61.507812 217.875 61.378906 C 217.671875 61.25 217.496094 61.089844 217.347656 60.898438 C 217.199219 60.710938 217.085938 60.5 217.007812 60.273438 C 216.929688 60.046875 216.886719 59.8125 216.886719 59.570312 L 216.886719 16.824219 C 216.886719 15.828125 216.761719 14.847656 216.515625 13.882812 C 216.269531 12.914062 215.910156 11.996094 215.433594 11.121094 C 214.957031 10.246094 214.382812 9.441406 213.707031 8.710938 C 213.03125 7.976562 212.273438 7.339844 211.4375 6.796875 L 211.4375 2.683594 L 165.761719 2.683594 C 165.285156 2.683594 164.816406 2.730469 164.347656 2.824219 C 163.882812 2.917969 163.429688 3.054688 162.992188 3.238281 C 162.550781 3.417969 162.136719 3.644531 161.738281 3.910156 C 161.34375 4.171875 160.980469 4.472656 160.644531 4.8125 C 160.308594 5.148438 160.007812 5.515625 159.746094 5.910156 C 159.484375 6.308594 159.261719 6.726562 159.082031 7.167969 C 158.898438 7.605469 158.765625 8.058594 158.671875 8.527344 C 158.582031 8.992188 158.539062 9.464844 158.539062 9.941406 L 158.539062 13.832031 C 158.273438 14.820312 158.140625 15.824219 158.132812 16.847656 L 158.132812 59.570312 C 158.132812 59.8125 158.09375 60.046875 158.015625 60.273438 C 157.9375 60.5 157.824219 60.710938 157.675781 60.898438 C 157.523438 61.089844 157.347656 61.25 157.144531 61.378906 C 156.945312 61.507812 156.726562 61.601562 156.492188 61.660156 C 144.136719 64.699219 132.492188 69.46875 121.554688 75.964844 C 121.347656 76.089844 121.128906 76.175781 120.894531 76.222656 C 120.664062 76.273438 120.425781 76.28125 120.191406 76.253906 C 119.953125 76.222656 119.726562 76.15625 119.511719 76.050781 C 119.300781 75.945312 119.109375 75.808594 118.941406 75.636719 L 88.800781 45.484375 C 87.714844 44.363281 86.464844 43.476562 85.042969 42.824219 C 83.625 42.171875 82.136719 41.800781 80.578125 41.707031 C 78.898438 41.628906 77.277344 41.894531 75.707031 42.503906 C 74.140625 43.113281 72.765625 44.015625 71.582031 45.210938 L 47 69.804688 C 46.28125 70.523438 45.660156 71.320312 45.144531 72.199219 C 44.628906 73.078125 44.230469 74.007812 43.953125 74.984375 C 43.671875 75.964844 43.519531 76.964844 43.496094 77.984375 C 43.46875 79 43.574219 80.007812 43.804688 81 L 71.980469 52.828125 C 72.476562 52.328125 73.015625 51.882812 73.601562 51.492188 C 74.1875 51.101562 74.804688 50.769531 75.453125 50.5 C 76.105469 50.230469 76.773438 50.027344 77.464844 49.890625 C 78.152344 49.75 78.851562 49.683594 79.554688 49.683594 C 80.257812 49.683594 80.953125 49.75 81.644531 49.890625 C 82.335938 50.027344 83.003906 50.230469 83.652344 50.5 C 84.304688 50.769531 84.921875 51.101562 85.507812 51.492188 C 86.089844 51.882812 86.632812 52.328125 87.128906 52.828125 L 119.414062 85.136719 C 119.414062 85.136719 137.109375 70.894531 165.410156 63.882812 L 165.410156 25.082031 C 165.410156 24.40625 165.476562 23.734375 165.609375 23.070312 C 165.742188 22.40625 165.9375 21.761719 166.195312 21.136719 C 166.453125 20.507812 166.773438 19.914062 167.148438 19.351562 C 167.523438 18.789062 167.953125 18.265625 168.429688 17.789062 C 168.910156 17.308594 169.429688 16.882812 169.992188 16.503906 C 170.554688 16.128906 171.152344 15.8125 171.777344 15.550781 C 172.402344 15.292969 173.046875 15.097656 173.710938 14.964844 C 174.375 14.832031 175.042969 14.765625 175.722656 14.765625 L 201.203125 14.765625 C 201.742188 14.765625 202.273438 14.820312 202.800781 14.921875 C 203.324219 15.027344 203.835938 15.183594 204.332031 15.390625 C 204.828125 15.59375 205.300781 15.847656 205.746094 16.144531 C 206.191406 16.441406 206.605469 16.78125 206.984375 17.160156 C 207.363281 17.539062 207.703125 17.953125 208 18.398438 C 208.300781 18.84375 208.550781 19.316406 208.757812 19.8125 C 208.964844 20.308594 209.121094 20.820312 209.222656 21.347656 C 209.328125 21.871094 209.382812 22.40625 209.382812 22.941406 L 209.382812 64.9375 C 209.382812 64.9375 290.960938 80.234375 308.257812 165.117188 L 353.351562 165.117188 C 353.945312 165.117188 354.535156 165.175781 355.117188 165.289062 C 355.699219 165.40625 356.265625 165.578125 356.816406 165.804688 C 357.363281 166.03125 357.886719 166.3125 358.382812 166.640625 C 358.875 166.972656 359.332031 167.347656 359.753906 167.769531 C 360.175781 168.1875 360.550781 168.644531 360.878906 169.140625 C 361.210938 169.632812 361.488281 170.15625 361.71875 170.707031 C 361.945312 171.253906 362.117188 171.820312 362.234375 172.402344 C 362.351562 172.988281 362.410156 173.574219 362.410156 174.171875 L 362.410156 215.878906 L 369.914062 212.253906 L 372.0625 187.148438 Z M 371.214844 165.09375 " fill-opacity="1" fill-rule="nonzero" />
  <path fill="#a7a9ac" d="M 105 279.332031 C 75.144531 250.941406 67.308594 212.230469 67.308594 212.230469 L 20.339844 212.230469 C 19.855469 212.230469 19.375 212.183594 18.898438 212.089844 C 18.421875 211.992188 17.957031 211.851562 17.511719 211.667969 C 17.0625 211.480469 16.632812 211.253906 16.230469 210.984375 C 15.828125 210.714844 15.453125 210.40625 15.109375 210.0625 C 14.765625 209.71875 14.460938 209.34375 14.191406 208.941406 C 13.917969 208.535156 13.691406 208.109375 13.503906 207.660156 C 13.320312 207.210938 13.179688 206.75 13.085938 206.273438 C 12.988281 205.796875 12.941406 205.3125 12.941406 204.828125 L 12.941406 158.714844 L 5.0625 160.957031 L 3.050781 202.648438 L 5.0625 215.265625 L 11.359375 215.265625 C 13.132812 216.242188 15.03125 216.734375 17.054688 216.734375 L 59.78125 216.734375 C 60.023438 216.734375 60.253906 216.773438 60.484375 216.851562 C 60.710938 216.933594 60.917969 217.046875 61.109375 217.195312 C 61.296875 217.34375 61.457031 217.519531 61.585938 217.722656 C 61.71875 217.925781 61.8125 218.144531 61.867188 218.378906 C 65.132812 231.667969 70.386719 244.113281 77.628906 255.71875 C 77.757812 255.925781 77.847656 256.148438 77.902344 256.382812 C 77.957031 256.621094 77.972656 256.859375 77.945312 257.101562 C 77.917969 257.34375 77.851562 257.574219 77.746094 257.792969 C 77.640625 258.011719 77.5 258.207031 77.328125 258.382812 L 47.382812 288.34375 C 46.828125 288.898438 46.332031 289.503906 45.894531 290.160156 C 45.460938 290.816406 45.089844 291.503906 44.792969 292.234375 C 44.492188 292.960938 44.265625 293.710938 44.109375 294.480469 C 43.957031 295.253906 43.882812 296.03125 43.882812 296.820312 C 43.882812 297.605469 43.957031 298.386719 44.109375 299.15625 C 44.265625 299.929688 44.492188 300.679688 44.792969 301.40625 C 45.089844 302.132812 45.460938 302.824219 45.894531 303.476562 C 46.332031 304.132812 46.828125 304.738281 47.382812 305.296875 L 71.6875 329.589844 C 72.773438 330.71875 74.023438 331.613281 75.441406 332.273438 C 76.863281 332.933594 78.351562 333.3125 79.914062 333.414062 C 81.59375 333.484375 83.214844 333.214844 84.777344 332.601562 C 86.34375 331.988281 87.71875 331.082031 88.902344 329.890625 L 109.085938 309.707031 C 109.191406 309.609375 109.300781 309.519531 109.417969 309.441406 C 104.667969 302.328125 103.90625 291.117188 105 279.332031 Z M 105 279.332031 " fill-opacity="1" fill-rule="nonzero" />
  <path fill="#a7a9ac" d="M 330.191406 289.015625 L 299.621094 319.605469 C 299.292969 319.929688 298.941406 320.21875 298.558594 320.476562 C 298.179688 320.734375 297.777344 320.953125 297.351562 321.128906 C 296.929688 321.308594 296.492188 321.445312 296.042969 321.539062 C 295.59375 321.636719 295.140625 321.6875 294.679688 321.691406 C 294.21875 321.699219 293.761719 321.660156 293.3125 321.578125 C 292.859375 321.496094 292.417969 321.371094 291.992188 321.207031 C 291.5625 321.039062 291.152344 320.832031 290.765625 320.585938 C 290.378906 320.339844 290.015625 320.058594 289.683594 319.742188 L 259.636719 291.300781 C 207.847656 312.5 169.546875 312.222656 141.386719 302.007812 C 140.957031 303.9375 140.316406 305.796875 139.460938 307.582031 C 145.007812 309.804688 150.683594 311.632812 156.484375 313.066406 C 156.71875 313.121094 156.9375 313.214844 157.140625 313.34375 C 157.339844 313.476562 157.515625 313.636719 157.667969 313.824219 C 157.816406 314.015625 157.929688 314.222656 158.007812 314.449219 C 158.085938 314.679688 158.125 314.914062 158.125 315.152344 L 158.125 357.488281 C 158.125 358.273438 158.203125 359.054688 158.355469 359.828125 C 158.511719 360.597656 158.738281 361.347656 159.039062 362.074219 C 159.339844 362.800781 159.710938 363.492188 160.148438 364.148438 C 160.585938 364.800781 161.082031 365.40625 161.636719 365.964844 C 162.195312 366.519531 162.800781 367.015625 163.453125 367.453125 C 164.109375 367.890625 164.796875 368.257812 165.527344 368.5625 C 166.253906 368.863281 167.003906 369.089844 167.773438 369.242188 C 168.546875 369.394531 169.324219 369.472656 170.113281 369.46875 L 204.875 369.46875 C 205.660156 369.472656 206.4375 369.394531 207.210938 369.242188 C 207.984375 369.089844 208.730469 368.863281 209.457031 368.5625 C 210.1875 368.257812 210.875 367.890625 211.53125 367.453125 C 212.183594 367.015625 212.789062 366.519531 213.347656 365.964844 C 213.902344 365.40625 214.402344 364.800781 214.835938 364.148438 C 215.273438 363.492188 215.644531 362.800781 215.945312 362.074219 C 216.246094 361.347656 216.472656 360.597656 216.628906 359.828125 C 216.78125 359.054688 216.859375 358.273438 216.859375 357.488281 L 216.859375 315.128906 C 216.859375 314.890625 216.898438 314.65625 216.976562 314.425781 C 217.054688 314.199219 217.167969 313.992188 217.316406 313.800781 C 217.46875 313.613281 217.644531 313.453125 217.847656 313.324219 C 218.046875 313.191406 218.265625 313.097656 218.5 313.042969 C 231.117188 309.933594 242.988281 305.023438 254.109375 298.304688 C 254.316406 298.183594 254.535156 298.09375 254.773438 298.046875 C 255.007812 297.996094 255.242188 297.984375 255.480469 298.011719 C 255.71875 298.042969 255.945312 298.109375 256.164062 298.214844 C 256.378906 298.320312 256.570312 298.457031 256.742188 298.628906 L 287.03125 328.933594 C 287.792969 329.695312 288.644531 330.339844 289.582031 330.871094 C 290.519531 331.402344 291.507812 331.800781 292.554688 332.066406 C 293.597656 332.328125 294.660156 332.449219 295.738281 332.425781 C 296.8125 332.402344 297.867188 332.238281 298.902344 331.929688 L 307.027344 330.355469 L 333.898438 300.011719 Z M 330.191406 289.015625 " fill-opacity="1" fill-rule="nonzero" />
  <path fill="#ffffff" d="M 226.425781 197.746094 C 227.425781 197.914062 228.390625 197.800781 229.324219 197.410156 C 229.964844 197.046875 230.453125 196.535156 230.792969 195.882812 C 231.285156 194.835938 231.503906 193.734375 231.441406 192.574219 C 231.382812 191.417969 231.050781 190.347656 230.449219 189.359375 C 229.210938 187.382812 227.550781 185.871094 225.472656 184.824219 C 223.582031 183.78125 221.382812 183.019531 219.289062 183.53125 C 215.65625 184.425781 207.234375 188.691406 209.886719 193.472656 C 211.21875 195.867188 213.769531 195.972656 216.183594 196.292969 C 219.601562 196.714844 222.980469 197.441406 226.425781 197.746094 Z M 226.425781 197.746094 " fill-opacity="1" fill-rule="nonzero" />
  <path fill="#ffffff" d="M 167.628906 174.699219 C 166.753906 174.183594 166.089844 173.472656 165.632812 172.566406 C 165.382812 171.863281 165.34375 171.152344 165.519531 170.429688 C 165.816406 169.3125 166.363281 168.332031 167.15625 167.488281 C 167.953125 166.644531 168.898438 166.039062 169.996094 165.675781 C 172.21875 164.964844 174.464844 164.882812 176.730469 165.4375 C 178.839844 165.867188 181.019531 166.707031 182.28125 168.449219 C 184.464844 171.507812 188.132812 180.1875 183.042969 182.109375 C 180.484375 183.070312 178.457031 181.496094 176.417969 180.1875 C 173.488281 178.332031 170.441406 176.695312 167.628906 174.699219 Z M 167.628906 174.699219 " fill-opacity="1" fill-rule="nonzero" />
  <path fill="#ffffff" d="M 188.324219 207.765625 C 164.042969 200.398438 129.625 214.714844 117.019531 220.632812 C 118.304688 222.617188 119.679688 224.566406 121.179688 226.46875 C 124.863281 231.128906 128.980469 235.371094 133.527344 239.1875 C 138.078125 243.007812 142.964844 246.328125 148.191406 249.152344 L 148.375 249.257812 C 157.136719 253.996094 166.40625 257.308594 176.1875 259.199219 C 184.011719 260.757812 191.902344 261.320312 199.867188 260.878906 C 207.832031 260.441406 215.613281 259.015625 223.21875 256.605469 C 223.539062 256.398438 223.894531 256.28125 224.28125 256.261719 C 225.625 255.8125 226.945312 255.320312 228.253906 254.808594 C 216.4375 232.921875 201.945312 211.902344 188.324219 207.765625 Z M 188.324219 207.765625 " fill-opacity="1" fill-rule="nonzero" />
  <path fill="#e29127" d="M 263.167969 115.523438 L 250.472656 132.53125 L 267.753906 152.53125 C 273.273438 130.199219 263.167969 115.523438 263.167969 115.523438 Z M 263.167969 115.523438 " fill-opacity="1" fill-rule="nonzero" />
  <path fill="#e29127" d="M 162.765625 111.601562 L 160.601562 93.386719 C 160.601562 93.386719 145.804688 100.859375 140.84375 119.9375 Z M 162.765625 111.601562 " fill-opacity="1" fill-rule="nonzero" />
  <path fill="#f94141" d="M 235.664062 227.773438 C 236.296875 228.136719 236.910156 228.523438 237.5 228.933594 C 238.089844 229.34375 238.648438 229.765625 239.175781 230.207031 C 239.699219 230.644531 240.183594 231.089844 240.625 231.542969 C 241.066406 231.996094 241.453125 232.445312 241.792969 232.894531 C 242.132812 233.339844 242.414062 233.777344 242.636719 234.203125 C 242.859375 234.628906 243.019531 235.035156 243.121094 235.425781 C 243.21875 235.8125 243.253906 236.175781 243.226562 236.507812 C 243.199219 236.84375 243.105469 237.144531 242.953125 237.414062 C 242.796875 237.683594 242.582031 237.914062 242.308594 238.109375 C 242.03125 238.300781 241.703125 238.453125 241.316406 238.5625 C 240.933594 238.671875 240.5 238.734375 240.019531 238.757812 C 239.539062 238.777344 239.019531 238.757812 238.464844 238.6875 C 237.90625 238.621094 237.320312 238.511719 236.710938 238.359375 C 236.097656 238.207031 235.46875 238.011719 234.824219 237.777344 C 234.179688 237.546875 233.535156 237.277344 232.882812 236.972656 C 232.230469 236.667969 231.589844 236.332031 230.957031 235.96875 C 230.324219 235.605469 229.710938 235.21875 229.121094 234.808594 C 228.53125 234.398438 227.972656 233.976562 227.445312 233.535156 C 226.917969 233.097656 226.4375 232.652344 225.996094 232.199219 C 225.554688 231.746094 225.167969 231.296875 224.828125 230.847656 C 224.488281 230.402344 224.207031 229.964844 223.984375 229.539062 C 223.761719 229.113281 223.601562 228.703125 223.5 228.316406 C 223.402344 227.929688 223.367188 227.566406 223.394531 227.234375 C 223.421875 226.898438 223.515625 226.597656 223.667969 226.328125 C 223.824219 226.058594 224.039062 225.828125 224.3125 225.632812 C 224.589844 225.441406 224.917969 225.289062 225.304688 225.179688 C 225.6875 225.070312 226.121094 225.003906 226.601562 224.984375 C 227.082031 224.960938 227.601562 224.984375 228.15625 225.050781 C 228.714844 225.121094 229.296875 225.230469 229.910156 225.382812 C 230.523438 225.535156 231.152344 225.730469 231.796875 225.960938 C 232.441406 226.195312 233.085938 226.464844 233.738281 226.769531 C 234.390625 227.074219 235.03125 227.410156 235.664062 227.773438 Z M 235.664062 227.773438 " fill-opacity="1" fill-rule="nonzero" />
  <path fill="#f94141" d="M 138.871094 194.058594 C 139.542969 194.335938 140.199219 194.640625 140.835938 194.96875 C 141.46875 195.300781 142.078125 195.648438 142.652344 196.015625 C 143.226562 196.382812 143.761719 196.761719 144.253906 197.152344 C 144.75 197.542969 145.191406 197.9375 145.582031 198.335938 C 145.972656 198.734375 146.308594 199.132812 146.582031 199.523438 C 146.859375 199.914062 147.070312 200.296875 147.21875 200.667969 C 147.363281 201.039062 147.445312 201.390625 147.460938 201.726562 C 147.476562 202.0625 147.425781 202.371094 147.304688 202.65625 C 147.1875 202.941406 147.003906 203.199219 146.757812 203.425781 C 146.511719 203.648438 146.203125 203.839844 145.835938 204 C 145.46875 204.15625 145.050781 204.277344 144.578125 204.359375 C 144.105469 204.441406 143.589844 204.484375 143.03125 204.488281 C 142.472656 204.496094 141.882812 204.460938 141.257812 204.386719 C 140.632812 204.3125 139.988281 204.203125 139.320312 204.054688 C 138.652344 203.90625 137.980469 203.722656 137.296875 203.507812 C 136.613281 203.289062 135.9375 203.039062 135.265625 202.761719 C 134.59375 202.480469 133.9375 202.179688 133.300781 201.847656 C 132.667969 201.519531 132.058594 201.171875 131.484375 200.804688 C 130.910156 200.4375 130.375 200.058594 129.882812 199.667969 C 129.386719 199.277344 128.945312 198.882812 128.554688 198.484375 C 128.164062 198.085938 127.828125 197.6875 127.554688 197.296875 C 127.28125 196.902344 127.066406 196.523438 126.921875 196.152344 C 126.773438 195.78125 126.691406 195.429688 126.675781 195.09375 C 126.660156 194.757812 126.710938 194.449219 126.832031 194.164062 C 126.949219 193.878906 127.132812 193.621094 127.378906 193.394531 C 127.625 193.167969 127.933594 192.976562 128.300781 192.820312 C 128.667969 192.664062 129.085938 192.542969 129.558594 192.460938 C 130.03125 192.378906 130.546875 192.335938 131.105469 192.328125 C 131.664062 192.324219 132.253906 192.359375 132.878906 192.433594 C 133.503906 192.503906 134.152344 192.617188 134.816406 192.765625 C 135.484375 192.914062 136.15625 193.09375 136.839844 193.3125 C 137.523438 193.53125 138.199219 193.78125 138.871094 194.058594 Z M 138.871094 194.058594 " fill-opacity="1" fill-rule="nonzero" />
  <path fill="#d1d3d4" d="M 259.972656 88.453125 L 289.15625 58.117188 C 289.609375 57.648438 290.101562 57.230469 290.636719 56.859375 C 291.171875 56.488281 291.742188 56.171875 292.339844 55.914062 C 292.9375 55.65625 293.554688 55.460938 294.191406 55.328125 C 294.828125 55.191406 295.472656 55.121094 296.125 55.117188 C 296.777344 55.109375 297.421875 55.167969 298.0625 55.289062 C 298.703125 55.414062 299.324219 55.597656 299.925781 55.84375 C 300.53125 56.089844 301.101562 56.394531 301.644531 56.753906 C 302.1875 57.117188 302.691406 57.527344 303.152344 57.988281 L 318.597656 73.449219 C 319.050781 73.90625 319.460938 74.402344 319.816406 74.9375 C 320.175781 75.472656 320.476562 76.039062 320.722656 76.632812 C 320.96875 77.226562 321.15625 77.839844 321.28125 78.472656 C 321.40625 79.105469 321.46875 79.742188 321.46875 80.386719 C 321.46875 81.03125 321.40625 81.667969 321.28125 82.300781 C 321.15625 82.933594 320.96875 83.546875 320.722656 84.140625 C 320.476562 84.734375 320.175781 85.300781 319.816406 85.835938 C 319.460938 86.371094 319.050781 86.867188 318.597656 87.324219 L 288.652344 117.292969 Z M 259.972656 88.453125 " fill-opacity="1" fill-rule="nonzero" />
  <path fill="#d1d3d4" d="M 179.972656 297.25 L 193.738281 297.25 C 194.726562 297.25 195.703125 297.347656 196.671875 297.539062 C 197.640625 297.734375 198.582031 298.019531 199.496094 298.398438 C 200.410156 298.777344 201.277344 299.238281 202.097656 299.789062 C 202.917969 300.339844 203.679688 300.960938 204.378906 301.660156 C 205.078125 302.359375 205.703125 303.121094 206.25 303.941406 C 206.800781 304.765625 207.261719 305.632812 207.640625 306.546875 C 208.019531 307.460938 208.304688 308.402344 208.496094 309.371094 C 208.691406 310.339844 208.785156 311.320312 208.785156 312.308594 L 208.785156 348.640625 C 208.785156 349.628906 208.691406 350.609375 208.496094 351.578125 C 208.304688 352.546875 208.019531 353.488281 207.640625 354.402344 C 207.261719 355.316406 206.800781 356.183594 206.25 357.003906 C 205.703125 357.828125 205.078125 358.585938 204.378906 359.285156 C 203.679688 359.984375 202.917969 360.609375 202.097656 361.160156 C 201.277344 361.707031 200.410156 362.171875 199.496094 362.550781 C 198.582031 362.929688 197.640625 363.214844 196.671875 363.40625 C 195.703125 363.601562 194.726562 363.695312 193.738281 363.695312 L 179.972656 363.695312 C 178.984375 363.695312 178.003906 363.601562 177.035156 363.40625 C 176.066406 363.214844 175.125 362.929688 174.210938 362.550781 C 173.300781 362.171875 172.433594 361.707031 171.609375 361.160156 C 170.789062 360.609375 170.027344 359.984375 169.328125 359.285156 C 168.632812 358.585938 168.007812 357.828125 167.457031 357.003906 C 166.910156 356.183594 166.445312 355.316406 166.066406 354.402344 C 165.6875 353.488281 165.402344 352.546875 165.210938 351.578125 C 165.019531 350.609375 164.921875 349.628906 164.921875 348.640625 L 164.921875 312.308594 C 164.921875 311.320312 165.019531 310.339844 165.210938 309.371094 C 165.402344 308.402344 165.6875 307.460938 166.066406 306.546875 C 166.445312 305.632812 166.910156 304.765625 167.457031 303.941406 C 168.007812 303.121094 168.632812 302.359375 169.328125 301.660156 C 170.027344 300.960938 170.789062 300.339844 171.609375 299.789062 C 172.433594 299.238281 173.300781 298.777344 174.210938 298.398438 C 175.125 298.019531 176.066406 297.734375 177.035156 297.539062 C 178.003906 297.347656 178.984375 297.25 179.972656 297.25 Z M 179.972656 297.25 " fill-opacity="1" fill-rule="nonzero" />
  <path fill="#d1d3d4" d="M 105.976562 301.335938 C 103.246094 290.574219 104.832031 275.929688 107.550781 262.695312 L 101.390625 256.53125 C 100.972656 256.113281 100.523438 255.742188 100.03125 255.417969 C 99.542969 255.089844 99.027344 254.816406 98.484375 254.589844 C 97.941406 254.367188 97.382812 254.195312 96.804688 254.082031 C 96.226562 253.96875 95.644531 253.910156 95.058594 253.910156 C 94.46875 253.910156 93.886719 253.96875 93.3125 254.082031 C 92.734375 254.195312 92.175781 254.367188 91.632812 254.589844 C 91.089844 254.816406 90.574219 255.089844 90.082031 255.417969 C 89.59375 255.742188 89.140625 256.113281 88.726562 256.53125 L 54.429688 290.84375 C 54.015625 291.257812 53.640625 291.710938 53.316406 292.203125 C 52.988281 292.691406 52.710938 293.207031 52.488281 293.75 C 52.261719 294.296875 52.089844 294.855469 51.976562 295.433594 C 51.863281 296.011719 51.804688 296.59375 51.804688 297.183594 C 51.804688 297.769531 51.863281 298.355469 51.976562 298.929688 C 52.089844 299.507812 52.261719 300.070312 52.488281 300.613281 C 52.710938 301.15625 52.988281 301.675781 53.316406 302.164062 C 53.640625 302.652344 54.015625 303.105469 54.429688 303.523438 L 72.773438 321.875 C 73.191406 322.292969 73.640625 322.664062 74.132812 322.988281 C 74.621094 323.316406 75.136719 323.59375 75.679688 323.820312 C 76.222656 324.042969 76.78125 324.214844 77.359375 324.328125 C 77.9375 324.445312 78.519531 324.5 79.105469 324.5 C 79.695312 324.5 80.277344 324.445312 80.855469 324.328125 C 81.429688 324.214844 81.992188 324.042969 82.535156 323.820312 C 83.078125 323.59375 83.59375 323.316406 84.082031 322.988281 C 84.570312 322.664062 85.023438 322.292969 85.4375 321.875 Z M 105.976562 301.335938 " fill-opacity="1" fill-rule="nonzero" />
  <path fill="#a7a9ac" d="M 222.660156 266.882812 C 222.46875 264.742188 222.367188 262.832031 222.324219 261.347656 C 213.367188 263.980469 204.21875 265.292969 194.882812 265.285156 C 186.65625 265.273438 178.550781 264.289062 170.558594 262.332031 C 162.570312 260.375 154.925781 257.5 147.625 253.707031 C 145.320312 255.953125 143.511719 258.539062 142.191406 261.46875 C 148.753906 264.773438 155.613281 267.265625 162.765625 268.941406 C 186.566406 274.683594 206.449219 272.957031 222.660156 266.882812 Z M 222.660156 266.882812 " fill-opacity="1" fill-rule="nonzero" />
  <path fill="#a7a9ac" d="M 114.539062 236.511719 C 115.761719 232.726562 116.65625 230.277344 116.832031 229.820312 C 116.980469 229.40625 117.238281 229.078125 117.59375 228.824219 C 113.648438 223.839844 110.375 218.449219 107.773438 212.648438 C 105.171875 206.84375 103.320312 200.8125 102.222656 194.550781 C 102.949219 207.796875 106.074219 223.027344 114.539062 236.511719 Z M 114.539062 236.511719 " fill-opacity="1" fill-rule="nonzero" />
  <path fill="#a7a9ac" d="M 252.078125 245.984375 C 252.199219 246.351562 252.390625 246.917969 252.605469 247.628906 C 256.734375 243.554688 260.449219 239.128906 263.75 234.355469 C 260.28125 238.652344 256.390625 242.53125 252.078125 245.984375 Z M 252.078125 245.984375 " fill-opacity="1" fill-rule="nonzero" />
  <path fill="#e29127" d="M 117.113281 242.742188 C 117.113281 242.742188 132.269531 256.246094 138.421875 259.445312 C 144.574219 262.640625 145.386719 251.09375 145.386719 251.09375 L 121.769531 230.5625 Z M 117.113281 242.742188 " fill-opacity="1" fill-rule="nonzero" />
  <path fill="#e29127" d="M 226.878906 265.523438 C 226.878906 265.523438 245.445312 259.03125 250.800781 250.992188 L 248.5625 246.0625 C 248.5625 246.0625 232.304688 255.542969 231.464844 255.851562 C 230.625 256.15625 224.433594 258.496094 224.433594 258.496094 Z M 226.878906 265.523438 " fill-opacity="1" fill-rule="nonzero" />
  <path fill="#ffe0b6" d="M 259.210938 147.8125 C 252.78125 139.664062 245.140625 132.890625 236.28125 127.492188 C 234.917969 125.730469 233.269531 124.304688 231.335938 123.210938 C 228.964844 121.765625 226.390625 121.027344 223.613281 120.984375 C 217.554688 118.445312 211.304688 116.523438 204.867188 115.226562 C 198.425781 113.925781 191.921875 113.273438 185.351562 113.269531 C 182.648438 113.269531 179.957031 113.390625 177.289062 113.621094 L 177.210938 113.621094 C 184.414062 113.933594 191.53125 114.882812 198.566406 116.464844 C 205.601562 118.046875 212.4375 120.238281 219.082031 123.042969 L 219.011719 123.140625 C 217.324219 126.0625 220.105469 130.789062 225.226562 133.785156 C 230.347656 136.785156 235.859375 136.769531 237.546875 133.847656 C 237.613281 133.730469 237.667969 133.613281 237.714844 133.488281 C 251.972656 143.8125 264.46875 159.488281 269.421875 183.316406 C 276.515625 217.476562 255.347656 239.546875 232.128906 253.148438 C 253.429688 243.574219 269.320312 225.828125 273.6875 203.367188 C 277.394531 184.195312 272.257812 164.457031 259.210938 147.8125 Z M 259.210938 147.8125 " fill-opacity="1" fill-rule="nonzero" />
  <path fill="#ffe0b6" d="M 239.679688 140.199219 C 240.011719 140.394531 240.328125 140.613281 240.625 140.859375 C 240.921875 141.105469 241.191406 141.371094 241.4375 141.660156 C 241.6875 141.949219 241.902344 142.253906 242.089844 142.574219 C 242.273438 142.894531 242.429688 143.226562 242.546875 143.566406 C 242.667969 143.90625 242.753906 144.246094 242.800781 144.59375 C 242.847656 144.941406 242.859375 145.28125 242.835938 145.621094 C 242.8125 145.960938 242.75 146.289062 242.652344 146.609375 C 242.554688 146.929688 242.425781 147.230469 242.257812 147.519531 C 242.09375 147.804688 241.898438 148.070312 241.667969 148.316406 C 241.441406 148.558594 241.1875 148.777344 240.90625 148.96875 C 240.625 149.160156 240.320312 149.320312 240 149.449219 C 239.675781 149.582031 239.335938 149.679688 238.980469 149.746094 C 238.628906 149.8125 238.265625 149.84375 237.894531 149.84375 C 237.523438 149.839844 237.152344 149.804688 236.777344 149.738281 C 236.40625 149.667969 236.039062 149.566406 235.679688 149.433594 C 235.316406 149.300781 234.96875 149.136719 234.632812 148.941406 C 234.296875 148.75 233.984375 148.527344 233.6875 148.28125 C 233.390625 148.035156 233.117188 147.769531 232.871094 147.480469 C 232.625 147.191406 232.410156 146.886719 232.222656 146.566406 C 232.035156 146.246094 231.882812 145.917969 231.765625 145.578125 C 231.644531 145.238281 231.558594 144.894531 231.511719 144.546875 C 231.464844 144.203125 231.449219 143.859375 231.476562 143.519531 C 231.5 143.179688 231.5625 142.851562 231.660156 142.53125 C 231.753906 142.214844 231.886719 141.910156 232.050781 141.621094 C 232.21875 141.335938 232.414062 141.070312 232.644531 140.828125 C 232.871094 140.582031 233.125 140.367188 233.40625 140.175781 C 233.6875 139.984375 233.988281 139.824219 234.3125 139.691406 C 234.636719 139.558594 234.976562 139.460938 235.332031 139.394531 C 235.683594 139.328125 236.046875 139.296875 236.417969 139.300781 C 236.789062 139.300781 237.160156 139.335938 237.535156 139.40625 C 237.90625 139.472656 238.273438 139.574219 238.632812 139.707031 C 238.996094 139.84375 239.34375 140.007812 239.679688 140.199219 Z M 239.679688 140.199219 " fill-opacity="1" fill-rule="nonzero" />
  <path fill="#e29127" d="M 164.921875 255.789062 C 64.382812 197.511719 132.972656 130.535156 135.042969 128.554688 C 120.003906 139.039062 110.027344 153.859375 106.71875 170.898438 C 102.988281 190.085938 108.125 209.820312 121.179688 226.46875 C 124.863281 231.128906 128.980469 235.371094 133.527344 239.1875 C 138.078125 243.007812 142.964844 246.328125 148.191406 249.152344 L 148.375 249.257812 C 154.226562 252.414062 160.339844 254.941406 166.71875 256.828125 Z M 164.921875 255.789062 " fill-opacity="1" fill-rule="nonzero" />
  <path fill="#e6e7e8" d="M 153.328125 251.734375 C 154.519531 252.296875 155.726562 252.832031 156.949219 253.339844 L 157.445312 253.554688 C 160.480469 254.804688 163.566406 255.894531 166.710938 256.828125 L 164.921875 255.789062 C 143.757812 243.554688 130.082031 230.867188 121.714844 218.507812 C 119.933594 219.273438 118.351562 220.039062 117.019531 220.632812 C 117.65625 221.613281 118.3125 222.59375 119 223.554688 C 119.6875 224.519531 120.414062 225.507812 121.171875 226.460938 C 124.855469 231.121094 128.972656 235.363281 133.519531 239.179688 C 138.070312 243 142.957031 246.320312 148.183594 249.144531 L 148.367188 249.25 C 149.679688 249.960938 151.019531 250.632812 152.371094 251.285156 Z M 153.328125 251.734375 " fill-opacity="1" fill-rule="nonzero" />
  <path fill="#d1d3d4" d="M 369.011719 268.359375 C 371.464844 268.359375 371.472656 264.535156 369.011719 264.535156 C 366.550781 264.535156 366.542969 268.359375 369.011719 268.359375 Z M 369.011719 268.359375 " fill-opacity="1" fill-rule="nonzero" />
  <path fill="#ffe0b6" d="M 274.25 165.476562 C 285.289062 135.132812 268.234375 105.605469 262.625 97.117188 L 242.050781 126.125 L 262.128906 103.472656 C 262.128906 103.472656 279.570312 125.902344 274.25 165.476562 Z M 274.25 165.476562 " fill-opacity="1" fill-rule="nonzero" />
  <path fill="#ffe0b6" d="M 167.628906 80.601562 L 172.144531 109.859375 L 172.191406 109.859375 C 172.953125 109.75 173.71875 109.628906 174.484375 109.539062 L 170.035156 75.246094 C 161.246094 80.019531 133.125 97.554688 127.996094 128.511719 C 135.527344 98.328125 167.628906 80.601562 167.628906 80.601562 Z M 167.628906 80.601562 " fill-opacity="1" fill-rule="nonzero" />
  <g clip-path="url(#id1)">
    <path fill="#231f20" d="M 357.945312 153.148438 L 317.296875 153.148438 C 314.28125 141.667969 309.808594 130.78125 303.882812 120.496094 L 332.804688 91.558594 C 333.195312 91.167969 333.5625 90.761719 333.914062 90.335938 C 334.261719 89.910156 334.589844 89.46875 334.894531 89.011719 C 335.199219 88.550781 335.480469 88.082031 335.742188 87.59375 C 336 87.109375 336.234375 86.613281 336.445312 86.105469 C 336.65625 85.59375 336.839844 85.078125 337 84.550781 C 337.160156 84.023438 337.292969 83.492188 337.402344 82.949219 C 337.507812 82.410156 337.589844 81.867188 337.640625 81.320312 C 337.695312 80.769531 337.722656 80.222656 337.722656 79.671875 C 337.722656 79.121094 337.695312 78.570312 337.640625 78.023438 C 337.589844 77.476562 337.507812 76.933594 337.402344 76.390625 C 337.292969 75.851562 337.160156 75.320312 337 74.792969 C 336.839844 74.265625 336.65625 73.746094 336.445312 73.238281 C 336.234375 72.730469 336 72.234375 335.742188 71.746094 C 335.480469 71.261719 335.199219 70.789062 334.894531 70.332031 C 334.589844 69.875 334.261719 69.433594 333.914062 69.007812 C 333.5625 68.582031 333.195312 68.171875 332.804688 67.785156 L 308.265625 43.183594 C 307.875 42.792969 307.46875 42.425781 307.042969 42.074219 C 306.617188 41.726562 306.175781 41.398438 305.714844 41.09375 C 305.257812 40.789062 304.785156 40.503906 304.300781 40.246094 C 303.816406 39.984375 303.320312 39.75 302.808594 39.539062 C 302.300781 39.328125 301.785156 39.144531 301.257812 38.984375 C 300.730469 38.824219 300.199219 38.691406 299.65625 38.582031 C 299.117188 38.476562 298.574219 38.394531 298.027344 38.339844 C 297.476562 38.289062 296.929688 38.261719 296.378906 38.261719 C 295.828125 38.261719 295.277344 38.289062 294.730469 38.339844 C 294.183594 38.394531 293.640625 38.476562 293.101562 38.582031 C 292.558594 38.691406 292.027344 38.824219 291.5 38.984375 C 290.972656 39.144531 290.457031 39.328125 289.945312 39.539062 C 289.4375 39.75 288.941406 39.984375 288.457031 40.246094 C 287.96875 40.503906 287.5 40.789062 287.039062 41.09375 C 286.582031 41.398438 286.140625 41.726562 285.714844 42.074219 C 285.289062 42.425781 284.882812 42.792969 284.492188 43.183594 L 255.90625 71.792969 C 245.179688 65.425781 233.789062 60.65625 221.726562 57.484375 L 221.726562 16.824219 C 221.726562 16.273438 221.699219 15.722656 221.644531 15.175781 C 221.589844 14.625 221.511719 14.082031 221.402344 13.542969 C 221.296875 13 221.164062 12.46875 221.003906 11.941406 C 220.84375 11.414062 220.65625 10.894531 220.445312 10.386719 C 220.234375 9.875 220 9.378906 219.742188 8.894531 C 219.480469 8.40625 219.199219 7.933594 218.894531 7.476562 C 218.585938 7.019531 218.257812 6.578125 217.910156 6.152344 C 217.558594 5.726562 217.191406 5.316406 216.800781 4.925781 C 216.414062 4.539062 216.003906 4.167969 215.578125 3.820312 C 215.152344 3.46875 214.710938 3.140625 214.253906 2.835938 C 213.796875 2.527344 213.324219 2.246094 212.839844 1.988281 C 212.351562 1.726562 211.855469 1.492188 211.347656 1.28125 C 210.835938 1.070312 210.320312 0.882812 209.792969 0.722656 C 209.265625 0.566406 208.730469 0.429688 208.191406 0.324219 C 207.652344 0.214844 207.109375 0.136719 206.558594 0.0820312 C 206.011719 0.0273438 205.460938 0 204.910156 0 L 170.121094 0 C 169.570312 0 169.019531 0.0273438 168.472656 0.0820312 C 167.921875 0.136719 167.378906 0.214844 166.839844 0.324219 C 166.296875 0.429688 165.765625 0.566406 165.238281 0.722656 C 164.710938 0.882812 164.191406 1.070312 163.683594 1.28125 C 163.175781 1.492188 162.679688 1.726562 162.191406 1.988281 C 161.707031 2.246094 161.234375 2.527344 160.777344 2.835938 C 160.320312 3.140625 159.878906 3.46875 159.453125 3.820312 C 159.027344 4.167969 158.617188 4.539062 158.230469 4.925781 C 157.839844 5.316406 157.46875 5.726562 157.121094 6.152344 C 156.769531 6.578125 156.445312 7.019531 156.136719 7.476562 C 155.832031 7.933594 155.550781 8.40625 155.289062 8.894531 C 155.03125 9.378906 154.792969 9.875 154.582031 10.386719 C 154.375 10.894531 154.1875 11.414062 154.027344 11.941406 C 153.867188 12.46875 153.734375 13 153.628906 13.542969 C 153.519531 14.082031 153.4375 14.625 153.386719 15.175781 C 153.332031 15.722656 153.304688 16.273438 153.304688 16.824219 L 153.304688 57.484375 C 141.910156 60.480469 131.105469 64.90625 120.882812 70.757812 L 91.957031 41.792969 C 91.570312 41.402344 91.160156 41.03125 90.738281 40.683594 C 90.3125 40.335938 89.867188 40.007812 89.410156 39.703125 C 88.953125 39.394531 88.480469 39.113281 87.996094 38.851562 C 87.511719 38.59375 87.015625 38.359375 86.503906 38.148438 C 85.996094 37.9375 85.480469 37.753906 84.953125 37.59375 C 84.425781 37.433594 83.890625 37.300781 83.351562 37.191406 C 82.8125 37.085938 82.269531 37.003906 81.722656 36.949219 C 81.171875 36.894531 80.625 36.867188 80.074219 36.867188 C 79.523438 36.867188 78.972656 36.894531 78.425781 36.949219 C 77.878906 37.003906 77.335938 37.085938 76.792969 37.191406 C 76.253906 37.300781 75.722656 37.433594 75.195312 37.59375 C 74.667969 37.753906 74.152344 37.9375 73.640625 38.148438 C 73.132812 38.359375 72.636719 38.59375 72.152344 38.851562 C 71.664062 39.113281 71.195312 39.394531 70.734375 39.703125 C 70.277344 40.007812 69.835938 40.335938 69.410156 40.683594 C 68.984375 41.03125 68.578125 41.402344 68.1875 41.792969 L 43.585938 66.382812 C 43.195312 66.773438 42.828125 67.183594 42.476562 67.609375 C 42.128906 68.035156 41.800781 68.476562 41.496094 68.933594 C 41.191406 69.390625 40.90625 69.863281 40.648438 70.347656 C 40.386719 70.835938 40.152344 71.332031 39.941406 71.839844 C 39.734375 72.351562 39.546875 72.867188 39.386719 73.394531 C 39.226562 73.921875 39.09375 74.457031 38.988281 74.996094 C 38.878906 75.535156 38.800781 76.078125 38.746094 76.628906 C 38.691406 77.175781 38.664062 77.726562 38.664062 78.277344 C 38.664062 78.828125 38.691406 79.375 38.746094 79.925781 C 38.800781 80.472656 38.878906 81.015625 38.988281 81.554688 C 39.09375 82.097656 39.226562 82.628906 39.386719 83.15625 C 39.546875 83.683594 39.734375 84.203125 39.941406 84.710938 C 40.152344 85.21875 40.386719 85.71875 40.648438 86.203125 C 40.90625 86.6875 41.191406 87.160156 41.496094 87.617188 C 41.800781 88.078125 42.128906 88.519531 42.476562 88.945312 C 42.828125 89.371094 43.195312 89.777344 43.585938 90.167969 L 72.132812 118.722656 C 65.703125 129.511719 60.890625 140.984375 57.695312 153.132812 L 17.054688 153.132812 C 16.503906 153.132812 15.953125 153.160156 15.40625 153.214844 C 14.859375 153.269531 14.3125 153.347656 13.773438 153.457031 C 13.234375 153.5625 12.699219 153.699219 12.171875 153.859375 C 11.644531 154.019531 11.128906 154.203125 10.621094 154.414062 C 10.109375 154.625 9.613281 154.859375 9.128906 155.121094 C 8.640625 155.378906 8.171875 155.664062 7.710938 155.96875 C 7.253906 156.273438 6.8125 156.601562 6.386719 156.953125 C 5.960938 157.300781 5.554688 157.671875 5.164062 158.0625 C 4.773438 158.449219 4.40625 158.859375 4.054688 159.285156 C 3.707031 159.710938 3.378906 160.152344 3.074219 160.609375 C 2.765625 161.070312 2.484375 161.539062 2.226562 162.027344 C 1.964844 162.511719 1.730469 163.011719 1.519531 163.519531 C 1.308594 164.027344 1.125 164.546875 0.964844 165.074219 C 0.804688 165.601562 0.671875 166.132812 0.5625 166.675781 C 0.457031 167.214844 0.375 167.761719 0.320312 168.308594 C 0.265625 168.855469 0.238281 169.40625 0.238281 169.957031 L 0.238281 204.734375 C 0.238281 205.289062 0.265625 205.835938 0.320312 206.386719 C 0.375 206.933594 0.457031 207.476562 0.5625 208.019531 C 0.671875 208.558594 0.804688 209.09375 0.964844 209.621094 C 1.125 210.148438 1.308594 210.664062 1.519531 211.175781 C 1.730469 211.683594 1.964844 212.179688 2.226562 212.667969 C 2.484375 213.152344 2.765625 213.625 3.074219 214.082031 C 3.378906 214.542969 3.707031 214.984375 4.054688 215.410156 C 4.40625 215.835938 4.773438 216.242188 5.164062 216.632812 C 5.554688 217.023438 5.960938 217.390625 6.386719 217.742188 C 6.8125 218.089844 7.253906 218.417969 7.710938 218.726562 C 8.171875 219.03125 8.640625 219.3125 9.128906 219.574219 C 9.613281 219.832031 10.109375 220.070312 10.621094 220.28125 C 11.128906 220.488281 11.644531 220.675781 12.171875 220.835938 C 12.699219 220.996094 13.234375 221.128906 13.773438 221.238281 C 14.3125 221.34375 14.859375 221.425781 15.40625 221.480469 C 15.953125 221.53125 16.503906 221.558594 17.054688 221.558594 L 57.695312 221.558594 C 60.933594 233.902344 65.84375 245.539062 72.421875 256.46875 L 43.972656 284.933594 C 43.585938 285.320312 43.21875 285.730469 42.867188 286.15625 C 42.519531 286.582031 42.191406 287.023438 41.886719 287.480469 C 41.582031 287.9375 41.300781 288.410156 41.039062 288.894531 C 40.78125 289.378906 40.546875 289.878906 40.335938 290.386719 C 40.125 290.894531 39.941406 291.414062 39.78125 291.941406 C 39.621094 292.464844 39.488281 293 39.378906 293.539062 C 39.273438 294.078125 39.191406 294.625 39.140625 295.171875 C 39.085938 295.71875 39.058594 296.269531 39.058594 296.820312 C 39.058594 297.371094 39.085938 297.917969 39.140625 298.464844 C 39.191406 299.015625 39.273438 299.558594 39.378906 300.097656 C 39.488281 300.636719 39.621094 301.171875 39.78125 301.699219 C 39.941406 302.226562 40.125 302.742188 40.335938 303.25 C 40.546875 303.761719 40.78125 304.257812 41.039062 304.742188 C 41.300781 305.230469 41.582031 305.699219 41.886719 306.15625 C 42.191406 306.617188 42.519531 307.058594 42.867188 307.484375 C 43.21875 307.910156 43.585938 308.316406 43.972656 308.707031 L 68.554688 333.300781 C 68.945312 333.6875 69.351562 334.058594 69.777344 334.40625 C 70.203125 334.753906 70.644531 335.082031 71.101562 335.386719 C 71.558594 335.695312 72.03125 335.976562 72.515625 336.234375 C 73.003906 336.496094 73.5 336.730469 74.007812 336.941406 C 74.515625 337.152344 75.035156 337.335938 75.558594 337.496094 C 76.085938 337.65625 76.621094 337.789062 77.160156 337.894531 C 77.699219 338.003906 78.242188 338.082031 78.789062 338.136719 C 79.335938 338.191406 79.886719 338.21875 80.4375 338.21875 C 80.988281 338.21875 81.535156 338.191406 82.082031 338.136719 C 82.632812 338.082031 83.175781 338.003906 83.714844 337.894531 C 84.253906 337.789062 84.785156 337.65625 85.3125 337.496094 C 85.839844 337.335938 86.359375 337.152344 86.867188 336.941406 C 87.375 336.730469 87.871094 336.496094 88.355469 336.234375 C 88.84375 335.976562 89.3125 335.695312 89.769531 335.386719 C 90.230469 335.082031 90.671875 334.753906 91.097656 334.40625 C 91.519531 334.058594 91.929688 333.6875 92.316406 333.300781 L 112.191406 313.417969 C 115.507812 316.308594 119.765625 317.792969 124.917969 317.828125 L 125.128906 317.828125 C 126.28125 317.800781 127.414062 317.652344 128.53125 317.382812 C 129.648438 317.113281 130.726562 316.730469 131.761719 316.234375 C 132.800781 315.738281 133.773438 315.136719 134.683594 314.433594 C 135.59375 313.730469 136.417969 312.941406 137.160156 312.0625 L 137.304688 311.886719 L 137.359375 311.886719 C 142.566406 313.984375 147.882812 315.746094 153.3125 317.171875 L 153.3125 357.425781 C 153.3125 357.976562 153.339844 358.527344 153.390625 359.074219 C 153.445312 359.625 153.527344 360.167969 153.632812 360.707031 C 153.742188 361.25 153.875 361.78125 154.035156 362.308594 C 154.195312 362.835938 154.378906 363.355469 154.589844 363.863281 C 154.800781 364.375 155.039062 364.871094 155.296875 365.355469 C 155.558594 365.84375 155.839844 366.316406 156.144531 366.773438 C 156.453125 367.230469 156.777344 367.671875 157.128906 368.097656 C 157.476562 368.523438 157.847656 368.933594 158.238281 369.324219 C 158.625 369.710938 159.035156 370.082031 159.460938 370.429688 C 159.886719 370.78125 160.328125 371.109375 160.785156 371.414062 C 161.242188 371.722656 161.714844 372.003906 162.199219 372.261719 C 162.6875 372.523438 163.183594 372.757812 163.691406 372.96875 C 164.199219 373.179688 164.71875 373.367188 165.246094 373.527344 C 165.773438 373.683594 166.304688 373.820312 166.847656 373.925781 C 167.386719 374.035156 167.929688 374.113281 168.480469 374.167969 C 169.027344 374.222656 169.574219 374.25 170.125 374.25 L 204.886719 374.25 C 205.4375 374.25 205.988281 374.222656 206.535156 374.167969 C 207.085938 374.113281 207.628906 374.035156 208.167969 373.925781 C 208.710938 373.820312 209.242188 373.683594 209.769531 373.527344 C 210.296875 373.367188 210.816406 373.179688 211.324219 372.96875 C 211.832031 372.757812 212.328125 372.523438 212.816406 372.261719 C 213.300781 372.003906 213.773438 371.722656 214.230469 371.414062 C 214.6875 371.109375 215.128906 370.78125 215.554688 370.429688 C 215.980469 370.082031 216.390625 369.710938 216.777344 369.324219 C 217.167969 368.933594 217.539062 368.523438 217.886719 368.097656 C 218.234375 367.671875 218.5625 367.230469 218.871094 366.773438 C 219.175781 366.316406 219.457031 365.84375 219.71875 365.355469 C 219.976562 364.871094 220.214844 364.375 220.421875 363.863281 C 220.632812 363.355469 220.820312 362.835938 220.980469 362.308594 C 221.140625 361.78125 221.273438 361.25 221.378906 360.707031 C 221.488281 360.167969 221.570312 359.625 221.621094 359.074219 C 221.675781 358.527344 221.703125 357.976562 221.703125 357.425781 L 221.703125 317.210938 C 233.363281 314.148438 244.402344 309.582031 254.820312 303.515625 L 283.636719 332.351562 C 284.027344 332.742188 284.433594 333.109375 284.859375 333.457031 C 285.285156 333.808594 285.726562 334.132812 286.183594 334.441406 C 286.640625 334.746094 287.113281 335.027344 287.597656 335.289062 C 288.085938 335.546875 288.582031 335.78125 289.089844 335.992188 C 289.597656 336.203125 290.117188 336.386719 290.640625 336.546875 C 291.167969 336.707031 291.703125 336.839844 292.242188 336.949219 C 292.78125 337.054688 293.324219 337.136719 293.871094 337.1875 C 294.417969 337.242188 294.96875 337.269531 295.519531 337.269531 C 296.070312 337.269531 296.617188 337.242188 297.164062 337.1875 C 297.714844 337.136719 298.257812 337.054688 298.796875 336.949219 C 299.335938 336.839844 299.867188 336.707031 300.394531 336.546875 C 300.921875 336.386719 301.441406 336.203125 301.949219 335.992188 C 302.457031 335.78125 302.953125 335.546875 303.4375 335.289062 C 303.925781 335.027344 304.394531 334.746094 304.851562 334.441406 C 305.3125 334.132812 305.753906 333.808594 306.179688 333.457031 C 306.601562 333.109375 307.011719 332.742188 307.398438 332.351562 L 331.957031 307.757812 C 332.347656 307.367188 332.714844 306.960938 333.066406 306.535156 C 333.414062 306.109375 333.742188 305.667969 334.046875 305.210938 C 334.351562 304.75 334.636719 304.28125 334.894531 303.792969 C 335.152344 303.308594 335.390625 302.8125 335.601562 302.300781 C 335.808594 301.792969 335.996094 301.273438 336.15625 300.75 C 336.316406 300.222656 336.449219 299.6875 336.554688 299.148438 C 336.664062 298.605469 336.742188 298.0625 336.796875 297.515625 C 336.851562 296.96875 336.878906 296.417969 336.878906 295.867188 C 336.878906 295.316406 336.851562 294.765625 336.796875 294.21875 C 336.742188 293.671875 336.664062 293.125 336.554688 292.585938 C 336.449219 292.046875 336.316406 291.511719 336.15625 290.984375 C 335.996094 290.457031 335.808594 289.941406 335.601562 289.433594 C 335.390625 288.921875 335.152344 288.425781 334.894531 287.941406 C 334.636719 287.453125 334.351562 286.984375 334.046875 286.523438 C 333.742188 286.066406 333.414062 285.625 333.066406 285.199219 C 332.714844 284.773438 332.347656 284.367188 331.957031 283.976562 L 303.28125 255.261719 C 309.5 244.671875 314.171875 233.4375 317.289062 221.558594 L 357.945312 221.558594 C 358.496094 221.558594 359.046875 221.53125 359.59375 221.480469 C 360.140625 221.425781 360.6875 221.34375 361.226562 221.238281 C 361.765625 221.128906 362.300781 220.996094 362.828125 220.835938 C 363.351562 220.675781 363.871094 220.488281 364.378906 220.28125 C 364.890625 220.070312 365.386719 219.832031 365.871094 219.574219 C 366.359375 219.3125 366.828125 219.03125 367.289062 218.726562 C 367.746094 218.417969 368.1875 218.089844 368.613281 217.742188 C 369.039062 217.390625 369.445312 217.023438 369.835938 216.632812 C 370.226562 216.242188 370.59375 215.835938 370.945312 215.410156 C 371.292969 214.984375 371.621094 214.542969 371.925781 214.082031 C 372.234375 213.625 372.515625 213.152344 372.773438 212.667969 C 373.035156 212.179688 373.269531 211.683594 373.480469 211.175781 C 373.691406 210.664062 373.875 210.148438 374.035156 209.621094 C 374.195312 209.09375 374.328125 208.558594 374.4375 208.019531 C 374.542969 207.476562 374.625 206.933594 374.679688 206.386719 C 374.734375 205.835938 374.761719 205.289062 374.761719 204.734375 L 374.761719 169.964844 C 374.761719 169.414062 374.734375 168.863281 374.679688 168.316406 C 374.625 167.769531 374.542969 167.222656 374.4375 166.683594 C 374.328125 166.144531 374.195312 165.609375 374.035156 165.082031 C 373.875 164.554688 373.6875 164.039062 373.476562 163.527344 C 373.265625 163.019531 373.03125 162.523438 372.773438 162.039062 C 372.511719 161.550781 372.230469 161.078125 371.925781 160.621094 C 371.617188 160.164062 371.289062 159.722656 370.941406 159.296875 C 370.589844 158.871094 370.222656 158.464844 369.832031 158.074219 C 369.445312 157.683594 369.035156 157.316406 368.609375 156.964844 C 368.183594 156.617188 367.742188 156.289062 367.285156 155.984375 C 366.828125 155.675781 366.355469 155.394531 365.871094 155.132812 C 365.382812 154.875 364.886719 154.640625 364.378906 154.429688 C 363.871094 154.21875 363.351562 154.03125 362.824219 153.871094 C 362.296875 153.714844 361.765625 153.578125 361.226562 153.472656 C 360.683594 153.363281 360.140625 153.285156 359.59375 153.230469 C 359.046875 153.175781 358.496094 153.148438 357.945312 153.148438 Z M 130.871094 310.566406 C 129.578125 307.761719 128.734375 304.832031 128.332031 301.769531 C 128.296875 301.425781 128.199219 301.101562 128.035156 300.796875 C 127.875 300.492188 127.660156 300.226562 127.398438 300.003906 C 127.132812 299.78125 126.839844 299.613281 126.511719 299.503906 C 126.183594 299.394531 125.847656 299.351562 125.5 299.375 C 125.15625 299.394531 124.828125 299.480469 124.515625 299.628906 C 124.203125 299.777344 123.929688 299.976562 123.695312 300.230469 C 123.460938 300.484375 123.28125 300.773438 123.160156 301.097656 C 123.035156 301.417969 122.976562 301.753906 122.984375 302.097656 C 122.984375 302.289062 123.265625 306.40625 125.839844 312.4375 C 125.421875 312.476562 125.152344 312.476562 125.078125 312.476562 L 124.949219 312.476562 C 123.828125 312.476562 122.722656 312.375 121.621094 312.171875 C 119.46875 306.054688 119.558594 301.992188 119.558594 301.902344 C 119.570312 301.546875 119.515625 301.203125 119.394531 300.867188 C 119.273438 300.535156 119.089844 300.238281 118.847656 299.976562 C 118.609375 299.71875 118.328125 299.511719 118.003906 299.363281 C 117.683594 299.214844 117.34375 299.132812 116.992188 299.117188 C 116.636719 299.105469 116.292969 299.164062 115.960938 299.289062 C 115.628906 299.410156 115.332031 299.59375 115.074219 299.832031 C 114.8125 300.074219 114.605469 300.355469 114.457031 300.675781 C 114.304688 300.996094 114.21875 301.332031 114.199219 301.6875 C 114.199219 304.097656 114.488281 306.472656 115.066406 308.8125 C 114.5 308.238281 113.988281 307.617188 113.535156 306.949219 C 101.988281 290.292969 117.1875 243.476562 120.652344 233.414062 C 127.082031 240.671875 134.472656 246.765625 142.816406 251.695312 C 141.277344 253.386719 139.953125 255.234375 138.84375 257.234375 C 137.734375 259.238281 136.871094 261.339844 136.253906 263.542969 C 135.636719 265.746094 135.285156 267.992188 135.195312 270.28125 C 135.101562 272.566406 135.277344 274.832031 135.714844 277.078125 C 139.539062 295.945312 136.433594 304.570312 133.125 308.484375 C 132.464844 309.277344 131.714844 309.96875 130.871094 310.566406 Z M 141.203125 125.261719 C 146.679688 122.148438 152.425781 119.660156 158.441406 117.792969 C 164.457031 115.925781 170.601562 114.722656 176.875 114.1875 C 177.003906 114.199219 177.128906 114.199219 177.257812 114.1875 L 177.363281 114.1875 C 180 113.964844 182.652344 113.84375 185.328125 113.84375 C 191.640625 113.851562 197.898438 114.457031 204.09375 115.664062 C 226.320312 119.992188 245.742188 131.539062 258.789062 148.179688 C 271.835938 164.820312 276.835938 184.289062 273.136719 203.3125 C 268.296875 228.214844 249.1875 247.292969 224.21875 255.734375 C 223.761719 255.765625 223.339844 255.90625 222.957031 256.15625 C 215.40625 258.539062 207.679688 259.941406 199.773438 260.371094 C 191.871094 260.800781 184.035156 260.238281 176.273438 258.6875 C 166.570312 256.824219 157.367188 253.550781 148.671875 248.859375 C 148.566406 248.800781 148.464844 248.738281 148.351562 248.683594 C 143.175781 245.878906 138.335938 242.582031 133.832031 238.792969 C 129.324219 235.003906 125.25 230.800781 121.597656 226.179688 C 108.644531 209.652344 103.546875 190.070312 107.246094 171.042969 C 110.945312 152.015625 123.007812 135.730469 141.203125 125.261719 Z M 128.722656 127.203125 C 134.296875 98.089844 160.34375 81.242188 169.605469 76.097656 L 173.894531 109.101562 C 167.671875 109.796875 161.582031 111.117188 155.625 113.054688 C 149.671875 114.992188 143.972656 117.511719 138.53125 120.609375 C 135.105469 122.578125 131.839844 124.777344 128.722656 127.203125 Z M 242.816406 125.972656 L 262.601562 98.066406 C 268.457031 107.128906 283.949219 135.023438 274.222656 163.929688 C 271.363281 157.042969 267.625 150.671875 263.007812 144.8125 C 257.242188 137.5 250.507812 131.21875 242.816406 125.972656 Z M 243.480469 275.433594 C 243.480469 275.480469 244.6875 279.601562 244.046875 286.375 C 244.039062 286.492188 244.039062 286.605469 244.046875 286.722656 C 243.464844 287.089844 242.855469 287.410156 242.226562 287.683594 C 241.503906 288.015625 240.753906 288.269531 239.980469 288.449219 C 240.515625 281.132812 239.175781 276.664062 239.113281 276.464844 C 239.003906 276.136719 238.832031 275.839844 238.605469 275.578125 C 238.375 275.3125 238.105469 275.101562 237.796875 274.945312 C 237.488281 274.785156 237.160156 274.691406 236.8125 274.660156 C 236.464844 274.632812 236.125 274.667969 235.792969 274.769531 C 235.460938 274.871094 235.160156 275.03125 234.886719 275.25 C 234.617188 275.46875 234.398438 275.730469 234.230469 276.035156 C 234.0625 276.339844 233.957031 276.664062 233.914062 277.011719 C 233.871094 277.355469 233.894531 277.699219 233.988281 278.035156 C 234.695312 281.101562 234.921875 284.203125 234.675781 287.339844 C 228.859375 282.796875 227.3125 267.886719 227.144531 260.390625 C 234.640625 257.757812 241.644531 254.171875 248.164062 249.632812 C 249.890625 255.445312 253.515625 270.28125 249.539062 279.992188 C 249.457031 277.917969 249.152344 275.878906 248.625 273.875 C 248.503906 273.558594 248.328125 273.273438 248.101562 273.019531 C 247.875 272.769531 247.609375 272.570312 247.304688 272.417969 C 247 272.269531 246.679688 272.179688 246.34375 272.148438 C 246.003906 272.121094 245.671875 272.15625 245.347656 272.25 C 245.023438 272.347656 244.726562 272.5 244.460938 272.710938 C 244.195312 272.921875 243.972656 273.171875 243.800781 273.464844 C 243.628906 273.753906 243.519531 274.070312 243.464844 274.402344 C 243.410156 274.738281 243.421875 275.070312 243.496094 275.402344 Z M 369.410156 204.742188 C 369.410156 205.496094 369.335938 206.242188 369.191406 206.980469 C 369.042969 207.71875 368.824219 208.4375 368.539062 209.132812 C 368.25 209.828125 367.894531 210.492188 367.476562 211.117188 C 367.058594 211.742188 366.585938 212.324219 366.050781 212.855469 C 365.519531 213.386719 364.941406 213.863281 364.316406 214.28125 C 363.6875 214.699219 363.027344 215.054688 362.332031 215.339844 C 361.636719 215.628906 360.921875 215.847656 360.183594 215.996094 C 359.445312 216.140625 358.699219 216.214844 357.945312 216.214844 L 315.210938 216.214844 C 314.910156 216.214844 314.621094 216.265625 314.335938 216.363281 C 314.054688 216.460938 313.792969 216.601562 313.558594 216.785156 C 313.320312 216.972656 313.121094 217.191406 312.957031 217.441406 C 312.796875 217.695312 312.679688 217.964844 312.605469 218.257812 C 309.460938 231.046875 304.464844 243.0625 297.609375 254.304688 C 297.453125 254.5625 297.34375 254.835938 297.28125 255.128906 C 297.214844 255.421875 297.203125 255.71875 297.238281 256.019531 C 297.273438 256.316406 297.359375 256.601562 297.488281 256.871094 C 297.621094 257.140625 297.792969 257.382812 298.007812 257.59375 L 328.183594 287.792969 C 328.710938 288.324219 329.183594 288.902344 329.601562 289.527344 C 330.019531 290.152344 330.367188 290.8125 330.65625 291.507812 C 330.941406 292.203125 331.160156 292.917969 331.304688 293.652344 C 331.449219 294.390625 331.523438 295.136719 331.523438 295.886719 C 331.523438 296.636719 331.449219 297.382812 331.304688 298.117188 C 331.160156 298.855469 330.941406 299.570312 330.65625 300.265625 C 330.367188 300.960938 330.019531 301.617188 329.601562 302.246094 C 329.183594 302.871094 328.710938 303.449219 328.183594 303.980469 L 303.59375 328.574219 C 303.0625 329.105469 302.484375 329.578125 301.859375 329.992188 C 301.234375 330.410156 300.574219 330.761719 299.878906 331.046875 C 299.1875 331.335938 298.472656 331.550781 297.734375 331.699219 C 296.996094 331.84375 296.253906 331.917969 295.503906 331.917969 C 294.753906 331.917969 294.007812 331.84375 293.273438 331.699219 C 292.535156 331.550781 291.820312 331.335938 291.125 331.046875 C 290.433594 330.761719 289.773438 330.410156 289.148438 329.992188 C 288.523438 329.578125 287.945312 329.105469 287.414062 328.574219 L 257.121094 298.238281 C 256.910156 298.023438 256.671875 297.851562 256.402344 297.722656 C 256.132812 297.589844 255.851562 297.503906 255.554688 297.46875 C 255.257812 297.429688 254.960938 297.445312 254.667969 297.507812 C 254.375 297.570312 254.101562 297.675781 253.84375 297.832031 C 242.761719 304.523438 230.933594 309.414062 218.363281 312.507812 C 218.074219 312.578125 217.800781 312.699219 217.550781 312.859375 C 217.296875 313.023438 217.078125 313.222656 216.894531 313.460938 C 216.710938 313.695312 216.570312 313.957031 216.46875 314.238281 C 216.371094 314.523438 216.324219 314.816406 216.324219 315.113281 L 216.324219 357.449219 C 216.324219 358.203125 216.25 358.949219 216.101562 359.6875 C 215.957031 360.425781 215.738281 361.144531 215.449219 361.839844 C 215.160156 362.535156 214.808594 363.195312 214.390625 363.820312 C 213.972656 364.449219 213.496094 365.027344 212.964844 365.558594 C 212.433594 366.09375 211.851562 366.566406 211.226562 366.988281 C 210.601562 367.40625 209.941406 367.757812 209.246094 368.046875 C 208.550781 368.335938 207.832031 368.550781 207.09375 368.699219 C 206.355469 368.847656 205.609375 368.917969 204.859375 368.921875 L 170.121094 368.921875 C 169.367188 368.921875 168.621094 368.847656 167.882812 368.699219 C 167.144531 368.550781 166.425781 368.335938 165.730469 368.046875 C 165.035156 367.757812 164.375 367.40625 163.75 366.988281 C 163.125 366.570312 162.542969 366.09375 162.011719 365.558594 C 161.480469 365.027344 161.003906 364.449219 160.585938 363.820312 C 160.167969 363.195312 159.816406 362.535156 159.527344 361.839844 C 159.238281 361.144531 159.019531 360.425781 158.875 359.6875 C 158.726562 358.949219 158.652344 358.203125 158.652344 357.449219 L 158.652344 315.128906 C 158.652344 314.828125 158.605469 314.535156 158.507812 314.253906 C 158.410156 313.96875 158.265625 313.707031 158.082031 313.472656 C 157.894531 313.234375 157.675781 313.035156 157.421875 312.875 C 157.171875 312.710938 156.898438 312.59375 156.605469 312.523438 C 151.011719 311.144531 145.539062 309.394531 140.179688 307.277344 C 143.488281 300.050781 143.773438 289.566406 141 275.992188 C 140.625 274.054688 140.492188 272.101562 140.601562 270.128906 C 140.710938 268.160156 141.058594 266.230469 141.640625 264.347656 C 142.222656 262.460938 143.027344 260.675781 144.050781 258.988281 C 145.070312 257.300781 146.285156 255.761719 147.6875 254.375 C 154.984375 258.128906 162.617188 260.972656 170.59375 262.914062 C 178.566406 264.851562 186.65625 265.828125 194.859375 265.84375 C 204.011719 265.855469 212.988281 264.605469 221.789062 262.089844 C 222.09375 269.8125 223.730469 286.558594 232.105469 292.144531 C 233.980469 293.390625 236.046875 294.007812 238.296875 293.992188 C 240.402344 293.960938 242.414062 293.507812 244.328125 292.632812 C 264.199219 284 254.59375 251.949219 252.683594 246.191406 C 265.78125 235.578125 275.101562 221.191406 278.378906 204.324219 C 279.445312 198.824219 279.84375 193.277344 279.570312 187.683594 C 279.296875 182.089844 278.363281 176.609375 276.765625 171.242188 C 277.125 170.960938 277.390625 170.613281 277.570312 170.195312 C 294.214844 130.765625 265.972656 93.292969 264.765625 91.765625 C 264.511719 91.433594 264.199219 91.175781 263.828125 90.992188 C 263.453125 90.808594 263.058594 90.714844 262.640625 90.71875 L 262.585938 90.71875 C 262.164062 90.726562 261.761719 90.828125 261.386719 91.027344 C 261.011719 91.226562 260.699219 91.5 260.457031 91.847656 L 238.289062 123.082031 C 227.984375 116.878906 216.921875 112.644531 205.109375 110.378906 C 196.558594 108.703125 187.929688 108.121094 179.230469 108.644531 L 174.429688 71.601562 C 174.402344 71.394531 174.351562 71.191406 174.277344 71 C 174.203125 70.804688 174.105469 70.621094 173.988281 70.449219 C 173.871094 70.277344 173.738281 70.121094 173.582031 69.980469 C 173.429688 69.839844 173.261719 69.71875 173.082031 69.617188 C 172.898438 69.515625 172.707031 69.433594 172.507812 69.378906 C 172.308594 69.320312 172.105469 69.289062 171.894531 69.277344 C 171.6875 69.269531 171.480469 69.28125 171.277344 69.320312 C 171.074219 69.359375 170.875 69.421875 170.683594 69.503906 C 168.859375 70.351562 126.355469 90.089844 122.53125 132.539062 C 119.902344 135.039062 117.480469 137.722656 115.265625 140.59375 C 113.054688 143.46875 111.074219 146.492188 109.328125 149.671875 C 107.578125 152.851562 106.089844 156.144531 104.851562 159.554688 C 103.613281 162.964844 102.648438 166.449219 101.949219 170.011719 C 98.003906 190.320312 103.285156 211.160156 116.824219 228.785156 C 116.585938 229.042969 116.40625 229.335938 116.289062 229.664062 C 115.410156 232.058594 95.085938 287.9375 108.644531 309.347656 L 88.464844 329.539062 C 87.933594 330.066406 87.355469 330.539062 86.730469 330.957031 C 86.105469 331.375 85.445312 331.726562 84.753906 332.011719 C 84.058594 332.296875 83.34375 332.515625 82.605469 332.660156 C 81.871094 332.808594 81.125 332.878906 80.375 332.878906 C 79.625 332.878906 78.882812 332.808594 78.144531 332.660156 C 77.40625 332.515625 76.691406 332.296875 76 332.011719 C 75.304688 331.726562 74.644531 331.375 74.019531 330.957031 C 73.394531 330.539062 72.816406 330.066406 72.285156 329.539062 L 47.765625 304.914062 C 47.234375 304.382812 46.761719 303.800781 46.347656 303.175781 C 45.929688 302.550781 45.578125 301.890625 45.292969 301.199219 C 45.003906 300.503906 44.789062 299.789062 44.644531 299.050781 C 44.496094 298.3125 44.425781 297.570312 44.425781 296.820312 C 44.425781 296.066406 44.496094 295.324219 44.644531 294.585938 C 44.789062 293.851562 45.003906 293.132812 45.292969 292.441406 C 45.578125 291.746094 45.929688 291.085938 46.347656 290.460938 C 46.761719 289.835938 47.234375 289.257812 47.765625 288.722656 L 77.710938 258.761719 C 77.925781 258.546875 78.097656 258.304688 78.230469 258.03125 C 78.359375 257.757812 78.445312 257.46875 78.476562 257.167969 C 78.511719 256.867188 78.496094 256.570312 78.429688 256.273438 C 78.359375 255.976562 78.246094 255.703125 78.085938 255.445312 C 70.871094 243.878906 65.636719 231.472656 62.386719 218.234375 C 62.3125 217.941406 62.195312 217.671875 62.03125 217.421875 C 61.871094 217.167969 61.667969 216.949219 61.433594 216.765625 C 61.199219 216.582031 60.9375 216.4375 60.65625 216.339844 C 60.371094 216.242188 60.082031 216.191406 59.78125 216.191406 L 17.054688 216.191406 C 16.300781 216.191406 15.554688 216.117188 14.816406 215.972656 C 14.078125 215.824219 13.363281 215.605469 12.667969 215.320312 C 11.972656 215.03125 11.3125 214.675781 10.683594 214.257812 C 10.058594 213.839844 9.480469 213.363281 8.949219 212.832031 C 8.414062 212.300781 7.941406 211.71875 7.523438 211.09375 C 7.105469 210.46875 6.75 209.804688 6.460938 209.109375 C 6.175781 208.414062 5.957031 207.699219 5.808594 206.957031 C 5.664062 206.21875 5.589844 205.472656 5.589844 204.722656 L 5.589844 169.964844 C 5.589844 169.210938 5.664062 168.464844 5.808594 167.726562 C 5.957031 166.988281 6.175781 166.269531 6.460938 165.574219 C 6.75 164.878906 7.105469 164.21875 7.523438 163.59375 C 7.941406 162.964844 8.414062 162.386719 8.949219 161.855469 C 9.480469 161.320312 10.058594 160.847656 10.683594 160.425781 C 11.3125 160.007812 11.972656 159.65625 12.667969 159.367188 C 13.363281 159.078125 14.078125 158.863281 14.816406 158.714844 C 15.554688 158.566406 16.300781 158.496094 17.054688 158.496094 L 59.78125 158.496094 C 60.082031 158.492188 60.371094 158.441406 60.65625 158.34375 C 60.941406 158.246094 61.199219 158.101562 61.433594 157.917969 C 61.671875 157.730469 61.871094 157.511719 62.035156 157.261719 C 62.195312 157.007812 62.316406 156.734375 62.386719 156.445312 C 65.59375 143.386719 70.730469 131.140625 77.796875 119.699219 C 77.953125 119.445312 78.066406 119.167969 78.132812 118.875 C 78.195312 118.578125 78.210938 118.28125 78.179688 117.980469 C 78.144531 117.683594 78.058594 117.398438 77.929688 117.125 C 77.796875 116.851562 77.625 116.609375 77.414062 116.398438 L 47.375 86.34375 C 46.847656 85.8125 46.371094 85.234375 45.957031 84.605469 C 45.539062 83.980469 45.1875 83.324219 44.902344 82.628906 C 44.617188 81.933594 44.398438 81.21875 44.253906 80.480469 C 44.105469 79.746094 44.035156 79 44.035156 78.25 C 44.035156 77.496094 44.105469 76.753906 44.253906 76.015625 C 44.398438 75.28125 44.617188 74.566406 44.902344 73.871094 C 45.1875 73.175781 45.539062 72.515625 45.957031 71.890625 C 46.371094 71.265625 46.847656 70.6875 47.375 70.15625 L 71.964844 45.585938 C 72.496094 45.054688 73.074219 44.582031 73.699219 44.164062 C 74.324219 43.75 74.984375 43.398438 75.679688 43.109375 C 76.371094 42.824219 77.085938 42.605469 77.824219 42.460938 C 78.558594 42.3125 79.304688 42.242188 80.054688 42.242188 C 80.804688 42.242188 81.550781 42.3125 82.285156 42.460938 C 83.023438 42.605469 83.738281 42.824219 84.429688 43.109375 C 85.125 43.398438 85.785156 43.75 86.410156 44.164062 C 87.035156 44.582031 87.613281 45.054688 88.144531 45.585938 L 118.558594 76.019531 C 118.769531 76.230469 119.007812 76.402344 119.277344 76.53125 C 119.546875 76.664062 119.828125 76.746094 120.125 76.78125 C 120.421875 76.820312 120.714844 76.808594 121.007812 76.746094 C 121.296875 76.683594 121.574219 76.578125 121.828125 76.425781 C 132.722656 69.949219 144.324219 65.203125 156.628906 62.179688 C 156.921875 62.105469 157.191406 61.988281 157.445312 61.824219 C 157.695312 61.664062 157.914062 61.464844 158.101562 61.226562 C 158.285156 60.992188 158.429688 60.730469 158.527344 60.445312 C 158.625 60.164062 158.675781 59.871094 158.675781 59.570312 L 158.675781 16.824219 C 158.675781 16.070312 158.75 15.324219 158.898438 14.585938 C 159.042969 13.847656 159.261719 13.128906 159.550781 12.433594 C 159.839844 11.738281 160.191406 11.078125 160.609375 10.449219 C 161.027344 9.824219 161.503906 9.246094 162.035156 8.710938 C 162.566406 8.179688 163.148438 7.703125 163.773438 7.285156 C 164.398438 6.867188 165.058594 6.515625 165.753906 6.226562 C 166.449219 5.9375 167.167969 5.71875 167.90625 5.574219 C 168.644531 5.425781 169.390625 5.351562 170.140625 5.351562 L 204.902344 5.351562 C 205.65625 5.351562 206.402344 5.425781 207.140625 5.574219 C 207.878906 5.71875 208.59375 5.9375 209.292969 6.226562 C 209.988281 6.515625 210.648438 6.867188 211.273438 7.285156 C 211.898438 7.703125 212.476562 8.179688 213.011719 8.710938 C 213.542969 9.246094 214.019531 9.824219 214.4375 10.449219 C 214.855469 11.078125 215.207031 11.738281 215.496094 12.433594 C 215.785156 13.128906 216 13.847656 216.148438 14.585938 C 216.296875 15.324219 216.367188 16.070312 216.367188 16.824219 L 216.367188 59.570312 C 216.371094 59.871094 216.417969 60.164062 216.519531 60.445312 C 216.617188 60.730469 216.757812 60.988281 216.941406 61.226562 C 217.128906 61.460938 217.34375 61.660156 217.597656 61.824219 C 217.847656 61.988281 218.117188 62.105469 218.410156 62.179688 C 231.378906 65.371094 243.546875 70.46875 254.921875 77.472656 C 255.179688 77.632812 255.453125 77.742188 255.75 77.808594 C 256.042969 77.871094 256.339844 77.886719 256.640625 77.851562 C 256.941406 77.816406 257.226562 77.734375 257.496094 77.601562 C 257.769531 77.46875 258.011719 77.296875 258.222656 77.082031 L 288.300781 47 C 288.832031 46.46875 289.410156 45.996094 290.035156 45.578125 C 290.660156 45.164062 291.320312 44.8125 292.011719 44.523438 C 292.707031 44.238281 293.421875 44.019531 294.160156 43.875 C 294.894531 43.730469 295.640625 43.65625 296.390625 43.65625 C 297.140625 43.65625 297.882812 43.730469 298.621094 43.875 C 299.359375 44.019531 300.074219 44.238281 300.765625 44.523438 C 301.460938 44.8125 302.121094 45.164062 302.746094 45.578125 C 303.371094 45.996094 303.949219 46.46875 304.480469 47 L 329.015625 71.578125 C 329.546875 72.109375 330.019531 72.6875 330.433594 73.3125 C 330.851562 73.9375 331.203125 74.597656 331.488281 75.292969 C 331.773438 75.988281 331.992188 76.703125 332.136719 77.4375 C 332.285156 78.175781 332.355469 78.921875 332.355469 79.671875 C 332.355469 80.421875 332.285156 81.167969 332.136719 81.902344 C 331.992188 82.640625 331.773438 83.355469 331.488281 84.050781 C 331.203125 84.746094 330.851562 85.40625 330.433594 86.03125 C 330.019531 86.65625 329.546875 87.234375 329.015625 87.765625 L 298.625 118.164062 C 298.414062 118.375 298.246094 118.613281 298.113281 118.882812 C 297.984375 119.152344 297.898438 119.433594 297.863281 119.730469 C 297.828125 120.027344 297.839844 120.320312 297.898438 120.613281 C 297.960938 120.90625 298.066406 121.179688 298.21875 121.4375 C 304.761719 132.394531 309.558594 144.074219 312.605469 156.46875 C 312.675781 156.761719 312.792969 157.03125 312.957031 157.285156 C 313.117188 157.539062 313.316406 157.757812 313.554688 157.945312 C 313.789062 158.128906 314.050781 158.269531 314.335938 158.371094 C 314.617188 158.46875 314.910156 158.515625 315.210938 158.515625 L 357.945312 158.515625 C 358.699219 158.515625 359.445312 158.589844 360.183594 158.738281 C 360.921875 158.882812 361.636719 159.101562 362.332031 159.390625 C 363.027344 159.679688 363.6875 160.03125 364.316406 160.449219 C 364.941406 160.867188 365.519531 161.34375 366.050781 161.875 C 366.585938 162.410156 367.058594 162.988281 367.476562 163.613281 C 367.894531 164.242188 368.25 164.902344 368.539062 165.597656 C 368.824219 166.292969 369.042969 167.011719 369.191406 167.75 C 369.335938 168.488281 369.410156 169.234375 369.410156 169.988281 Z M 369.410156 204.742188 " fill-opacity="1" fill-rule="nonzero" />
  </g>
  <path fill="#231f20" d="M 208.273438 213.46875 C 208.597656 213.617188 208.9375 213.695312 209.292969 213.707031 C 209.648438 213.71875 209.992188 213.664062 210.324219 213.535156 C 210.65625 213.410156 210.953125 213.226562 211.214844 212.984375 C 211.472656 212.738281 211.675781 212.457031 211.820312 212.132812 C 214 207.320312 220.410156 205.515625 226.113281 208.101562 C 227.484375 208.695312 228.703125 209.515625 229.773438 210.554688 C 230.847656 211.59375 231.699219 212.789062 232.335938 214.140625 C 232.902344 215.300781 233.199219 216.523438 233.230469 217.808594 C 233.257812 219.097656 233.015625 220.332031 232.503906 221.515625 C 232.355469 221.835938 232.277344 222.175781 232.265625 222.53125 C 232.253906 222.886719 232.3125 223.230469 232.4375 223.5625 C 232.558594 223.894531 232.742188 224.191406 232.984375 224.453125 C 233.226562 224.710938 233.511719 224.914062 233.832031 225.0625 C 234.183594 225.226562 234.554688 225.308594 234.941406 225.308594 C 235.46875 225.304688 235.953125 225.164062 236.394531 224.878906 C 236.835938 224.59375 237.167969 224.210938 237.386719 223.730469 C 237.800781 222.800781 238.109375 221.832031 238.3125 220.835938 C 238.519531 219.835938 238.613281 218.824219 238.597656 217.804688 C 238.582031 216.785156 238.460938 215.78125 238.226562 214.785156 C 237.996094 213.792969 237.660156 212.835938 237.21875 211.917969 C 236.3125 209.976562 235.09375 208.257812 233.5625 206.757812 C 232.035156 205.261719 230.289062 204.078125 228.332031 203.214844 C 219.921875 199.390625 210.339844 202.410156 206.929688 209.914062 C 206.78125 210.238281 206.703125 210.578125 206.691406 210.9375 C 206.679688 211.292969 206.738281 211.636719 206.863281 211.972656 C 206.992188 212.304688 207.175781 212.601562 207.421875 212.859375 C 207.664062 213.121094 207.949219 213.324219 208.273438 213.46875 Z M 208.273438 213.46875 " fill-opacity="1" fill-rule="nonzero" />
  <path fill="#231f20" d="M 144.558594 193.019531 C 144.898438 193.132812 145.246094 193.171875 145.601562 193.144531 C 145.957031 193.117188 146.292969 193.023438 146.609375 192.859375 C 146.925781 192.699219 147.199219 192.480469 147.429688 192.210938 C 147.660156 191.9375 147.828125 191.632812 147.9375 191.292969 C 149.566406 186.269531 155.582031 183.699219 161.296875 185.558594 C 167.015625 187.414062 170.386719 193.011719 168.757812 198.039062 C 168.648438 198.375 168.605469 198.722656 168.632812 199.078125 C 168.664062 199.433594 168.757812 199.769531 168.917969 200.085938 C 169.082031 200.402344 169.296875 200.679688 169.570312 200.910156 C 169.839844 201.140625 170.148438 201.308594 170.484375 201.417969 C 170.753906 201.507812 171.027344 201.554688 171.3125 201.554688 C 171.59375 201.554688 171.871094 201.511719 172.140625 201.421875 C 172.40625 201.332031 172.65625 201.207031 172.886719 201.039062 C 173.113281 200.871094 173.3125 200.675781 173.476562 200.445312 C 173.644531 200.214844 173.769531 199.964844 173.855469 199.695312 C 176.394531 191.851562 171.503906 183.226562 162.949219 180.449219 C 154.398438 177.671875 145.371094 181.800781 142.839844 189.625 C 142.726562 189.964844 142.683594 190.3125 142.710938 190.667969 C 142.734375 191.027344 142.832031 191.363281 142.992188 191.683594 C 143.152344 192 143.371094 192.277344 143.640625 192.507812 C 143.914062 192.742188 144.21875 192.910156 144.558594 193.019531 Z M 144.558594 193.019531 " fill-opacity="1" fill-rule="nonzero" />
  <path fill="#231f20" d="M 195.265625 230.515625 C 192.8125 233.0625 190.679688 234.230469 189.226562 233.816406 C 187.421875 233.304688 186.046875 230.421875 185.40625 228.335938 C 190.335938 229.039062 194.652344 227.417969 195.707031 224.167969 C 196.960938 220.28125 193.0625 215.535156 186.996094 213.570312 C 180.925781 211.601562 174.988281 213.164062 173.734375 217.046875 C 172.671875 220.328125 175.261719 224.222656 179.757812 226.539062 C 178.3125 227.859375 175.867188 229.550781 174.214844 229.070312 C 172.566406 228.585938 171.160156 225.652344 170.394531 221.03125 C 170.351562 220.667969 170.238281 220.324219 170.054688 220.003906 C 169.871094 219.683594 169.632812 219.414062 169.339844 219.195312 C 169.042969 218.972656 168.71875 218.820312 168.359375 218.734375 C 168 218.648438 167.640625 218.632812 167.277344 218.695312 C 166.914062 218.757812 166.578125 218.890625 166.269531 219.089844 C 165.960938 219.289062 165.703125 219.542969 165.5 219.851562 C 165.296875 220.15625 165.160156 220.492188 165.09375 220.851562 C 165.023438 221.214844 165.03125 221.574219 165.113281 221.933594 C 166.296875 228.953125 168.859375 233.09375 172.757812 234.214844 C 175.914062 235.140625 178.984375 233.773438 181.164062 232.265625 C 182.339844 234.902344 184.40625 238.007812 187.765625 238.980469 C 188.457031 239.179688 189.160156 239.277344 189.878906 239.277344 C 192.8125 239.277344 195.921875 237.589844 199.148438 234.246094 C 199.355469 233.988281 199.511719 233.699219 199.613281 233.378906 C 199.714844 233.0625 199.753906 232.738281 199.734375 232.402344 C 199.714844 232.070312 199.632812 231.753906 199.496094 231.449219 C 199.355469 231.148438 199.167969 230.878906 198.929688 230.648438 C 198.691406 230.414062 198.417969 230.230469 198.113281 230.101562 C 197.804688 229.96875 197.488281 229.898438 197.152344 229.886719 C 196.820312 229.871094 196.496094 229.921875 196.179688 230.03125 C 195.867188 230.136719 195.582031 230.300781 195.328125 230.515625 Z M 195.265625 230.515625 " fill-opacity="1" fill-rule="nonzero" />
  <path fill="#231f20" d="M 168.445312 209.636719 C 168.574219 209.96875 168.761719 210.261719 169.007812 210.519531 C 169.25 210.773438 169.535156 210.972656 169.859375 211.117188 C 170.183594 211.261719 170.523438 211.335938 170.878906 211.347656 C 171.234375 211.355469 171.578125 211.296875 171.90625 211.167969 C 172.710938 210.855469 191.621094 203.839844 201.074219 222.898438 C 201.234375 223.214844 201.445312 223.492188 201.714844 223.726562 C 201.980469 223.960938 202.285156 224.132812 202.621094 224.246094 C 202.957031 224.359375 203.304688 224.402344 203.660156 224.378906 C 204.015625 224.355469 204.351562 224.265625 204.667969 224.105469 C 204.988281 223.949219 205.261719 223.734375 205.496094 223.46875 C 205.730469 223.199219 205.90625 222.898438 206.019531 222.558594 C 206.132812 222.222656 206.175781 221.878906 206.152344 221.523438 C 206.128906 221.167969 206.039062 220.832031 205.882812 220.511719 C 194.210938 197.011719 170.203125 206.074219 169.957031 206.167969 C 169.628906 206.296875 169.335938 206.484375 169.078125 206.730469 C 168.824219 206.976562 168.625 207.261719 168.484375 207.589844 C 168.339844 207.914062 168.265625 208.253906 168.261719 208.609375 C 168.253906 208.964844 168.316406 209.308594 168.445312 209.636719 Z M 168.445312 209.636719 " fill-opacity="1" fill-rule="nonzero" />
  <path fill="#ffffff" d="M 184.6875 216.480469 C 184.6875 216.75 184.597656 217.007812 184.417969 217.257812 C 184.234375 217.507812 183.976562 217.726562 183.644531 217.914062 C 183.308594 218.105469 182.925781 218.25 182.488281 218.355469 C 182.050781 218.457031 181.597656 218.507812 181.125 218.507812 C 180.652344 218.507812 180.199219 218.457031 179.761719 218.355469 C 179.324219 218.25 178.941406 218.105469 178.605469 217.914062 C 178.273438 217.726562 178.015625 217.507812 177.835938 217.257812 C 177.652344 217.007812 177.5625 216.75 177.5625 216.480469 C 177.5625 216.214844 177.652344 215.953125 177.835938 215.707031 C 178.015625 215.457031 178.273438 215.238281 178.605469 215.050781 C 178.941406 214.859375 179.324219 214.710938 179.761719 214.609375 C 180.199219 214.507812 180.652344 214.457031 181.125 214.457031 C 181.597656 214.457031 182.050781 214.507812 182.488281 214.609375 C 182.925781 214.710938 183.308594 214.859375 183.644531 215.050781 C 183.976562 215.238281 184.234375 215.457031 184.417969 215.707031 C 184.597656 215.953125 184.6875 216.214844 184.6875 216.480469 Z M 184.6875 216.480469 " fill-opacity="1" fill-rule="nonzero" />
</svg>